G75*
%MOIN*%
%OFA0B0*%
%FSLAX24Y24*%
%IPPOS*%
%LPD*%
%AMOC8*
5,1,8,0,0,1.08239X$1,22.5*
%
%ADD10C,0.0040*%
%ADD11C,0.0030*%
%ADD12C,0.0080*%
%ADD13C,0.0060*%
D10*
X000790Y005117D02*
X000790Y005577D01*
X001020Y005577D01*
X001097Y005500D01*
X001097Y005347D01*
X001020Y005270D01*
X000790Y005270D01*
X001250Y005270D02*
X001250Y005577D01*
X001250Y005423D02*
X001404Y005577D01*
X001481Y005577D01*
X001634Y005500D02*
X001634Y005347D01*
X001711Y005270D01*
X001864Y005270D01*
X001941Y005347D01*
X001941Y005500D01*
X001864Y005577D01*
X001711Y005577D01*
X001634Y005500D01*
X001596Y006020D02*
X001826Y006020D01*
X001903Y006097D01*
X001903Y006250D01*
X001826Y006327D01*
X001596Y006327D01*
X001596Y006480D02*
X001596Y006020D01*
X002056Y006097D02*
X002133Y006020D01*
X002286Y006020D01*
X002363Y006097D01*
X002363Y006250D01*
X002286Y006327D01*
X002133Y006327D01*
X002056Y006250D01*
X002056Y006097D01*
X002171Y005654D02*
X002171Y005347D01*
X002248Y005270D01*
X002401Y005347D02*
X002401Y005500D01*
X002478Y005577D01*
X002632Y005577D01*
X002708Y005500D01*
X002708Y005347D01*
X002632Y005270D01*
X002478Y005270D01*
X002401Y005347D01*
X002248Y005577D02*
X002095Y005577D01*
X002593Y006020D02*
X002517Y006097D01*
X002517Y006250D01*
X002593Y006327D01*
X002747Y006327D01*
X002823Y006250D01*
X002823Y006097D01*
X002747Y006020D01*
X002593Y006020D01*
X002862Y005577D02*
X003015Y005577D01*
X002939Y005654D02*
X002939Y005347D01*
X003015Y005270D01*
X003169Y005347D02*
X003245Y005270D01*
X003476Y005270D01*
X003476Y005193D02*
X003399Y005117D01*
X003322Y005117D01*
X003476Y005193D02*
X003476Y005577D01*
X003629Y005577D02*
X003859Y005577D01*
X003936Y005500D01*
X003936Y005347D01*
X003859Y005270D01*
X003629Y005270D01*
X003629Y005117D02*
X003629Y005577D01*
X003591Y006020D02*
X003514Y006097D01*
X003514Y006404D01*
X003437Y006327D02*
X003591Y006327D01*
X003284Y006327D02*
X003054Y006327D01*
X002977Y006250D01*
X003054Y006173D01*
X003207Y006173D01*
X003284Y006097D01*
X003207Y006020D01*
X002977Y006020D01*
X003169Y005577D02*
X003169Y005347D01*
X004090Y005347D02*
X004090Y005500D01*
X004166Y005577D01*
X004320Y005577D01*
X004396Y005500D01*
X004396Y005423D01*
X004090Y005423D01*
X004090Y005347D02*
X004166Y005270D01*
X004320Y005270D01*
X004255Y001930D02*
X004101Y001930D01*
X004025Y001854D01*
X004025Y001547D01*
X004332Y001854D01*
X004332Y001547D01*
X004255Y001470D01*
X004101Y001470D01*
X004025Y001547D01*
X003871Y001470D02*
X003718Y001623D01*
X003795Y001623D02*
X003564Y001623D01*
X003564Y001470D02*
X003564Y001930D01*
X003795Y001930D01*
X003871Y001854D01*
X003871Y001700D01*
X003795Y001623D01*
X004255Y001930D02*
X004332Y001854D01*
X004485Y001547D02*
X004562Y001547D01*
X004562Y001470D01*
X004485Y001470D01*
X004485Y001547D01*
X004715Y001470D02*
X005022Y001777D01*
X005022Y001854D01*
X004945Y001930D01*
X004792Y001930D01*
X004715Y001854D01*
X004715Y001470D02*
X005022Y001470D01*
D11*
X004905Y003123D02*
X004905Y003317D01*
X004905Y003220D02*
X004615Y003220D01*
X004712Y003123D01*
X004663Y003418D02*
X004615Y003466D01*
X004615Y003563D01*
X004663Y003611D01*
X004857Y003418D01*
X004905Y003466D01*
X004905Y003563D01*
X004857Y003611D01*
X004663Y003611D01*
X004760Y003712D02*
X004663Y003809D01*
X004615Y003906D01*
X004760Y003857D02*
X004760Y003712D01*
X004857Y003712D01*
X004905Y003761D01*
X004905Y003857D01*
X004857Y003906D01*
X004808Y003906D01*
X004760Y003857D01*
X004857Y003418D02*
X004663Y003418D01*
X003532Y004513D02*
X003483Y004465D01*
X003387Y004465D01*
X003338Y004513D01*
X003338Y004610D02*
X003435Y004658D01*
X003483Y004658D01*
X003532Y004610D01*
X003532Y004513D01*
X003532Y004755D02*
X003338Y004755D01*
X003338Y004610D01*
X003237Y004562D02*
X003237Y004513D01*
X003189Y004465D01*
X003092Y004465D01*
X003044Y004513D01*
X003044Y004610D01*
X003189Y004610D01*
X003237Y004562D01*
X003140Y004707D02*
X003237Y004755D01*
X003140Y004707D02*
X003044Y004610D01*
X002942Y004562D02*
X002942Y004513D01*
X002894Y004465D01*
X002797Y004465D01*
X002749Y004513D01*
X002749Y004610D01*
X002894Y004610D01*
X002942Y004562D01*
X002846Y004707D02*
X002942Y004755D01*
X002846Y004707D02*
X002749Y004610D01*
X002648Y004658D02*
X002648Y004707D01*
X002599Y004755D01*
X002503Y004755D01*
X002454Y004707D01*
X002353Y004755D02*
X002353Y004465D01*
X002454Y004465D02*
X002648Y004658D01*
X002648Y004465D02*
X002454Y004465D01*
X002256Y004658D02*
X002353Y004755D01*
X002256Y004658D02*
X002160Y004755D01*
X002160Y004465D01*
X002058Y004465D02*
X001865Y004465D01*
X001865Y004755D01*
X001657Y004406D02*
X001608Y004406D01*
X001560Y004357D01*
X001560Y004212D01*
X001657Y004212D01*
X001705Y004261D01*
X001705Y004357D01*
X001657Y004406D01*
X001463Y004309D02*
X001560Y004212D01*
X001463Y004309D02*
X001415Y004406D01*
X001463Y004111D02*
X001657Y003918D01*
X001705Y003966D01*
X001705Y004063D01*
X001657Y004111D01*
X001463Y004111D01*
X001415Y004063D01*
X001415Y003966D01*
X001463Y003918D01*
X001657Y003918D01*
X001705Y003817D02*
X001705Y003623D01*
X001705Y003720D02*
X001415Y003720D01*
X001512Y003623D01*
X001262Y002655D02*
X001262Y002365D01*
X001358Y002365D02*
X001165Y002365D01*
X001064Y002413D02*
X001064Y002607D01*
X001015Y002655D01*
X000870Y002655D01*
X000870Y002365D01*
X001015Y002365D01*
X001064Y002413D01*
X001165Y002558D02*
X001262Y002655D01*
D12*
X001032Y002245D02*
X001032Y001655D01*
X001504Y001655D01*
X001032Y001655D02*
X000796Y001655D01*
X000796Y002245D02*
X001032Y002245D01*
X001504Y002245D01*
X002090Y003243D02*
X002090Y003857D01*
X002847Y003826D02*
X002847Y003550D01*
X003201Y003550D01*
X003210Y003857D02*
X003210Y003243D01*
D13*
X000650Y001100D02*
X000650Y000600D01*
X000900Y000350D01*
X001400Y000350D01*
X001650Y000600D01*
X001900Y000350D01*
X002400Y000350D01*
X002650Y000600D01*
X002650Y001100D01*
X002400Y001350D01*
X001900Y001350D01*
X001650Y001100D01*
X001650Y000600D01*
X001650Y001100D02*
X001400Y001350D01*
X000900Y001350D01*
X000650Y001100D01*
X002650Y001100D02*
X002900Y001350D01*
X003400Y001350D01*
X003650Y001100D01*
X003900Y001350D01*
X004400Y001350D01*
X004650Y001100D01*
X004650Y000600D01*
X004400Y000350D01*
X003900Y000350D01*
X003650Y000600D01*
X003400Y000350D01*
X002900Y000350D01*
X002650Y000600D01*
X003650Y000600D02*
X003650Y001100D01*
M02*
