G75*
%MOIN*%
%OFA0B0*%
%FSLAX24Y24*%
%IPPOS*%
%LPD*%
%AMOC8*
5,1,8,0,0,1.08239X$1,22.5*
%
%ADD10C,0.0040*%
%ADD11C,0.0080*%
D10*
X000970Y001530D02*
X001030Y001470D01*
X000970Y001530D02*
X000970Y001650D01*
X001030Y001710D01*
X001090Y001710D01*
X001150Y001650D01*
X001150Y001530D01*
X001210Y001470D01*
X001270Y001470D01*
X001330Y001530D01*
X001330Y001650D01*
X001270Y001710D01*
X001330Y001838D02*
X001330Y002018D01*
X001270Y002079D01*
X001030Y002079D01*
X000970Y002018D01*
X000970Y001838D01*
X001330Y001838D01*
X001670Y001898D02*
X001670Y002018D01*
X001730Y002079D01*
X001970Y002079D01*
X002030Y002018D01*
X002030Y001898D01*
X001970Y001838D01*
X001730Y001838D01*
X001670Y001898D01*
X001790Y001710D02*
X002030Y001710D01*
X002030Y001470D02*
X001790Y001470D01*
X001670Y001590D01*
X001790Y001710D01*
X001730Y002207D02*
X001670Y002267D01*
X001670Y002387D01*
X001730Y002447D01*
X002030Y002447D01*
X002030Y002575D02*
X002030Y002815D01*
X002030Y002695D02*
X001670Y002695D01*
X001730Y002207D02*
X002030Y002207D01*
X003270Y002207D02*
X003270Y002387D01*
X003330Y002447D01*
X003570Y002447D01*
X003630Y002387D01*
X003630Y002207D01*
X003270Y002207D01*
X003270Y002079D02*
X003630Y002079D01*
X003630Y001838D02*
X003270Y002079D01*
X003270Y001838D02*
X003630Y001838D01*
X003570Y001710D02*
X003630Y001650D01*
X003630Y001530D01*
X003570Y001470D01*
X003330Y001470D01*
X003270Y001530D01*
X003270Y001650D01*
X003330Y001710D01*
X003450Y001710D01*
X003450Y001590D01*
X003970Y001590D02*
X004090Y001710D01*
X004330Y001710D01*
X004330Y001838D02*
X004330Y002018D01*
X004270Y002079D01*
X004210Y002079D01*
X004150Y002018D01*
X004150Y001838D01*
X003970Y001838D02*
X003970Y002018D01*
X004030Y002079D01*
X004090Y002079D01*
X004150Y002018D01*
X004150Y002207D02*
X004150Y002447D01*
X004210Y002447D02*
X003970Y002447D01*
X003970Y002207D02*
X004210Y002207D01*
X004330Y002327D01*
X004210Y002447D01*
X004330Y002575D02*
X004330Y002815D01*
X004330Y002695D02*
X003970Y002695D01*
X003970Y001838D02*
X004330Y001838D01*
X004330Y001470D02*
X004090Y001470D01*
X003970Y001590D01*
D11*
X004150Y002050D02*
X003650Y002050D01*
X004150Y002050D02*
X005150Y003050D01*
X005150Y006050D01*
X004150Y007050D01*
X003650Y007050D01*
X001650Y007050D02*
X001050Y007050D01*
X001050Y007049D02*
X000996Y007045D01*
X000942Y007037D01*
X000889Y007025D01*
X000836Y007009D01*
X000785Y006990D01*
X000735Y006967D01*
X000687Y006941D01*
X000641Y006912D01*
X000597Y006879D01*
X000556Y006844D01*
X000517Y006805D01*
X000480Y006764D01*
X000447Y006721D01*
X000417Y006676D01*
X000390Y006628D01*
X000366Y006579D01*
X000346Y006528D01*
X000329Y006476D01*
X000316Y006423D01*
X000307Y006369D01*
X000302Y006314D01*
X000300Y006260D01*
X000302Y006205D01*
X000308Y006151D01*
X000318Y006097D01*
X000331Y006044D01*
X000348Y005992D01*
X000369Y005941D01*
X000393Y005892D01*
X000420Y005845D01*
X000451Y005800D01*
X000450Y005800D02*
X000511Y005749D01*
X000569Y005694D01*
X000625Y005637D01*
X000677Y005577D01*
X000727Y005515D01*
X000773Y005450D01*
X000816Y005383D01*
X000856Y005314D01*
X000892Y005243D01*
X000925Y005171D01*
X000954Y005096D01*
X000979Y005021D01*
X001001Y004944D01*
X001018Y004867D01*
X001032Y004788D01*
X001042Y004709D01*
X001048Y004630D01*
X001050Y004550D01*
X001048Y004470D01*
X001042Y004391D01*
X001032Y004312D01*
X001018Y004233D01*
X001001Y004156D01*
X000979Y004079D01*
X000954Y004004D01*
X000925Y003929D01*
X000892Y003857D01*
X000856Y003786D01*
X000816Y003717D01*
X000773Y003650D01*
X000727Y003585D01*
X000677Y003523D01*
X000625Y003463D01*
X000569Y003406D01*
X000511Y003351D01*
X000450Y003300D01*
X000418Y003257D01*
X000389Y003212D01*
X000363Y003164D01*
X000340Y003115D01*
X000321Y003065D01*
X000306Y003013D01*
X000294Y002960D01*
X000286Y002907D01*
X000282Y002853D01*
X000281Y002799D01*
X000285Y002745D01*
X000292Y002691D01*
X000302Y002639D01*
X000317Y002587D01*
X000335Y002536D01*
X000357Y002486D01*
X000382Y002438D01*
X000410Y002392D01*
X000442Y002349D01*
X000476Y002307D01*
X000514Y002268D01*
X000554Y002232D01*
X000596Y002198D01*
X000641Y002168D01*
X000687Y002141D01*
X000736Y002117D01*
X000786Y002097D01*
X000837Y002080D01*
X000890Y002067D01*
X000943Y002058D01*
X000996Y002052D01*
X001050Y002050D01*
X001650Y002050D01*
M02*
