G75*
%MOIN*%
%OFA0B0*%
%FSLAX24Y24*%
%IPPOS*%
%LPD*%
%AMOC8*
5,1,8,0,0,1.08239X$1,22.5*
%
%ADD10C,0.0070*%
%ADD11C,0.0040*%
%ADD12C,0.0100*%
%ADD13C,0.0160*%
%ADD14C,0.0050*%
%ADD15C,0.0030*%
%ADD16C,0.0060*%
%ADD17C,0.0080*%
D10*
X005460Y001225D02*
X005755Y001225D01*
X005854Y001323D01*
X005755Y001422D01*
X005558Y001422D01*
X005460Y001520D01*
X005558Y001619D01*
X005854Y001619D01*
X006068Y001619D02*
X006265Y001619D01*
X006166Y001717D02*
X006166Y001323D01*
X006265Y001225D01*
X006473Y001225D02*
X006473Y001619D01*
X006670Y001619D02*
X006768Y001619D01*
X006670Y001619D02*
X006473Y001422D01*
X006979Y001520D02*
X006979Y001323D01*
X007078Y001225D01*
X007275Y001225D01*
X007373Y001323D01*
X007373Y001520D01*
X007275Y001619D01*
X007078Y001619D01*
X006979Y001520D01*
X007587Y001619D02*
X007882Y001619D01*
X007981Y001520D01*
X007981Y001323D01*
X007882Y001225D01*
X007587Y001225D01*
X007587Y001816D01*
X008195Y001520D02*
X008293Y001619D01*
X008490Y001619D01*
X008588Y001520D01*
X008588Y001422D01*
X008195Y001422D01*
X008195Y001520D02*
X008195Y001323D01*
X008293Y001225D01*
X008490Y001225D01*
D11*
X010895Y000870D02*
X010895Y000510D01*
X010895Y000630D02*
X011075Y000630D01*
X011135Y000690D01*
X011135Y000810D01*
X011075Y000870D01*
X010895Y000870D01*
X011263Y000810D02*
X011323Y000870D01*
X011443Y000870D01*
X011504Y000810D01*
X011263Y000570D01*
X011323Y000510D01*
X011443Y000510D01*
X011504Y000570D01*
X011504Y000810D01*
X011263Y000810D02*
X011263Y000570D01*
X011135Y000510D02*
X011015Y000630D01*
X011632Y000570D02*
X011692Y000570D01*
X011692Y000510D01*
X011632Y000510D01*
X011632Y000570D01*
X011816Y000570D02*
X011876Y000510D01*
X011996Y000510D01*
X012056Y000570D01*
X012056Y000630D01*
X011996Y000690D01*
X011936Y000690D01*
X011996Y000690D02*
X012056Y000750D01*
X012056Y000810D01*
X011996Y000870D01*
X011876Y000870D01*
X011816Y000810D01*
X004252Y004890D02*
X003945Y004890D01*
X004098Y004737D02*
X004098Y005044D01*
D12*
X003275Y001990D02*
X003275Y000490D01*
X005275Y000490D01*
X005275Y001990D01*
X003275Y001990D01*
X003919Y001365D02*
X003950Y001396D01*
X003988Y001420D01*
X004030Y001435D01*
X004075Y001440D01*
X004120Y001435D01*
X004162Y001420D01*
X004200Y001396D01*
X004231Y001365D01*
X004255Y001327D01*
X004270Y001285D01*
X004275Y001240D01*
X004270Y001195D01*
X004255Y001153D01*
X004231Y001115D01*
X004200Y001084D01*
X004162Y001060D01*
X004120Y001045D01*
X004075Y001040D01*
X004030Y001045D01*
X003988Y001060D01*
X003950Y001084D01*
X003919Y001115D01*
X003895Y001153D01*
X003880Y001195D01*
X003875Y001240D01*
X003880Y001285D01*
X003895Y001327D01*
X003919Y001365D01*
X003893Y001322D02*
X004257Y001322D01*
X004161Y001421D02*
X003989Y001421D01*
X003475Y001240D02*
X003477Y001289D01*
X003483Y001337D01*
X003493Y001385D01*
X003507Y001432D01*
X003524Y001478D01*
X003545Y001522D01*
X003570Y001564D01*
X003598Y001604D01*
X003630Y001642D01*
X003664Y001677D01*
X003701Y001709D01*
X003740Y001738D01*
X003782Y001764D01*
X003826Y001786D01*
X003871Y001804D01*
X003918Y001819D01*
X003965Y001830D01*
X004014Y001837D01*
X004063Y001840D01*
X004112Y001839D01*
X004160Y001834D01*
X004209Y001825D01*
X004256Y001812D01*
X004302Y001795D01*
X004346Y001775D01*
X004389Y001751D01*
X004430Y001724D01*
X004468Y001693D01*
X004504Y001660D01*
X004536Y001624D01*
X004566Y001585D01*
X004593Y001544D01*
X004616Y001500D01*
X004635Y001455D01*
X004651Y001409D01*
X004663Y001362D01*
X004671Y001313D01*
X004675Y001264D01*
X004675Y001216D01*
X004671Y001167D01*
X004663Y001118D01*
X004651Y001071D01*
X004635Y001025D01*
X004616Y000980D01*
X004593Y000936D01*
X004566Y000895D01*
X004536Y000856D01*
X004504Y000820D01*
X004468Y000787D01*
X004430Y000756D01*
X004389Y000729D01*
X004346Y000705D01*
X004302Y000685D01*
X004256Y000668D01*
X004209Y000655D01*
X004160Y000646D01*
X004112Y000641D01*
X004063Y000640D01*
X004014Y000643D01*
X003965Y000650D01*
X003918Y000661D01*
X003871Y000676D01*
X003826Y000694D01*
X003782Y000716D01*
X003740Y000742D01*
X003701Y000771D01*
X003664Y000803D01*
X003630Y000838D01*
X003598Y000876D01*
X003570Y000916D01*
X003545Y000958D01*
X003524Y001002D01*
X003507Y001048D01*
X003493Y001095D01*
X003483Y001143D01*
X003477Y001191D01*
X003475Y001240D01*
X003877Y001224D02*
X004273Y001224D01*
X004237Y001125D02*
X003913Y001125D01*
X004904Y000820D02*
X004922Y000840D01*
X004938Y000862D01*
X004951Y000885D01*
X004961Y000910D01*
X004969Y000936D01*
X004973Y000963D01*
X004975Y000990D01*
X004975Y001690D01*
X004875Y001716D02*
X005075Y001716D01*
X005075Y001618D02*
X004875Y001618D01*
X004875Y001540D02*
X004875Y001840D01*
X005075Y001840D01*
X005075Y001540D01*
X004875Y001540D01*
X004875Y001815D02*
X005075Y001815D01*
D13*
X004904Y000819D02*
X004775Y000690D01*
D14*
X005450Y000740D02*
X005450Y000590D01*
X005525Y000515D01*
X005675Y000515D01*
X005750Y000590D01*
X005750Y000665D01*
X005675Y000740D01*
X005450Y000740D01*
X005600Y000890D01*
X005750Y000965D01*
X005910Y000890D02*
X005985Y000965D01*
X006136Y000965D01*
X006211Y000890D01*
X005910Y000590D01*
X005985Y000515D01*
X006136Y000515D01*
X006211Y000590D01*
X006211Y000890D01*
X005910Y000890D02*
X005910Y000590D01*
X006371Y000590D02*
X006371Y000515D01*
X006446Y000515D01*
X006446Y000590D01*
X006371Y000590D01*
X006601Y000590D02*
X006676Y000515D01*
X006826Y000515D01*
X006901Y000590D01*
X006901Y000890D01*
X006601Y000590D01*
X006601Y000890D01*
X006676Y000965D01*
X006826Y000965D01*
X006901Y000890D01*
X007061Y000965D02*
X007061Y000515D01*
X007061Y000740D02*
X007362Y000740D01*
X007522Y000815D02*
X007822Y000815D01*
X007522Y000515D01*
X007822Y000515D01*
X007362Y000515D02*
X007362Y000965D01*
X006814Y002459D02*
X006814Y004821D01*
X006794Y004821D02*
X006558Y004821D01*
X005692Y004821D02*
X005456Y004821D01*
X005436Y004821D02*
X005436Y002459D01*
X005456Y002459D02*
X005692Y002459D01*
X006558Y002459D02*
X006794Y002459D01*
X006420Y003049D02*
X005830Y003049D01*
X005830Y004231D01*
X006420Y004231D01*
X006420Y003049D01*
X009311Y002892D02*
X009508Y003010D01*
X009508Y002774D01*
X009311Y002892D01*
X009587Y002656D02*
X009587Y004624D01*
X010984Y004624D02*
X010984Y002656D01*
X011575Y003365D02*
X011575Y003483D01*
X011358Y003483D01*
X011339Y003581D02*
X011339Y003699D01*
X011811Y003699D01*
X011811Y003581D01*
X011339Y003581D01*
X011575Y003483D02*
X011792Y003483D01*
X011792Y003797D02*
X011575Y003797D01*
X011575Y003935D01*
X011575Y003797D02*
X011358Y003797D01*
X012166Y004624D02*
X012166Y002656D01*
D15*
X010428Y002347D02*
X010428Y002298D01*
X010235Y002105D01*
X010428Y002105D01*
X010133Y002105D02*
X010037Y002202D01*
X010085Y002202D02*
X009940Y002202D01*
X010085Y002202D02*
X010133Y002250D01*
X010133Y002347D01*
X010085Y002395D01*
X009940Y002395D01*
X009940Y002105D01*
X010235Y002347D02*
X010283Y002395D01*
X010380Y002395D01*
X010428Y002347D01*
X007378Y002055D02*
X007185Y002055D01*
X007281Y002055D02*
X007281Y002345D01*
X007185Y002248D01*
X007083Y002297D02*
X007035Y002345D01*
X006938Y002345D01*
X006890Y002297D01*
X006890Y002103D01*
X006938Y002055D01*
X007035Y002055D01*
X007083Y002103D01*
X009540Y004815D02*
X009637Y004815D01*
X009588Y004815D02*
X009588Y005105D01*
X009540Y005105D02*
X009637Y005105D01*
X009736Y005057D02*
X009736Y004863D01*
X009785Y004815D01*
X009882Y004815D01*
X009930Y004863D01*
X010031Y004815D02*
X010225Y004815D01*
X010128Y004815D02*
X010128Y005105D01*
X010031Y005008D01*
X009930Y005057D02*
X009882Y005105D01*
X009785Y005105D01*
X009736Y005057D01*
X009428Y005755D02*
X009235Y005755D01*
X009428Y005948D01*
X009428Y005997D01*
X009380Y006045D01*
X009283Y006045D01*
X009235Y005997D01*
X009133Y005997D02*
X009085Y006045D01*
X008988Y006045D01*
X008940Y005997D01*
X008940Y005803D01*
X008988Y005755D01*
X009085Y005755D01*
X009133Y005803D01*
X007528Y005297D02*
X007528Y005248D01*
X007480Y005200D01*
X007528Y005152D01*
X007528Y005103D01*
X007480Y005055D01*
X007383Y005055D01*
X007335Y005103D01*
X007233Y005055D02*
X007137Y005152D01*
X007185Y005152D02*
X007040Y005152D01*
X007040Y005055D02*
X007040Y005345D01*
X007185Y005345D01*
X007233Y005297D01*
X007233Y005200D01*
X007185Y005152D01*
X007335Y005297D02*
X007383Y005345D01*
X007480Y005345D01*
X007528Y005297D01*
X007480Y005200D02*
X007431Y005200D01*
X006028Y005803D02*
X005980Y005755D01*
X005883Y005755D01*
X005835Y005803D01*
X005733Y005803D02*
X005685Y005755D01*
X005588Y005755D01*
X005540Y005803D01*
X005540Y005997D01*
X005588Y006045D01*
X005685Y006045D01*
X005733Y005997D01*
X005835Y005997D02*
X005883Y006045D01*
X005980Y006045D01*
X006028Y005997D01*
X006028Y005948D01*
X005980Y005900D01*
X006028Y005852D01*
X006028Y005803D01*
X005980Y005900D02*
X005931Y005900D01*
X004752Y006435D02*
X004558Y006435D01*
X004655Y006435D02*
X004655Y006725D01*
X004558Y006628D01*
X004457Y006580D02*
X004457Y006677D01*
X004409Y006725D01*
X004264Y006725D01*
X004264Y006435D01*
X004264Y006532D02*
X004409Y006532D01*
X004457Y006580D01*
X004360Y006532D02*
X004457Y006435D01*
X004510Y005730D02*
X004365Y005730D01*
X004317Y005682D01*
X004365Y005634D01*
X004510Y005634D01*
X004510Y005537D02*
X004317Y005537D01*
X004317Y005585D01*
X004365Y005634D01*
X004317Y005436D02*
X004317Y005291D01*
X004365Y005242D01*
X004462Y005242D01*
X004510Y005291D01*
X004510Y005436D01*
X004558Y005436D02*
X004317Y005436D01*
X004558Y005436D02*
X004607Y005387D01*
X004607Y005339D01*
X004462Y005141D02*
X004365Y005141D01*
X004317Y005093D01*
X004317Y004948D01*
X004607Y004948D01*
X004510Y004948D02*
X004510Y005093D01*
X004462Y005141D01*
D16*
X008307Y004703D02*
X009843Y004703D01*
X009860Y004702D01*
X009877Y004697D01*
X009892Y004690D01*
X009906Y004680D01*
X009918Y004668D01*
X009928Y004654D01*
X009935Y004639D01*
X009940Y004622D01*
X009941Y004605D01*
X008307Y004703D02*
X008290Y004702D01*
X008273Y004697D01*
X008258Y004690D01*
X008244Y004680D01*
X008232Y004668D01*
X008222Y004654D01*
X008215Y004639D01*
X008210Y004622D01*
X008209Y004605D01*
X008209Y002675D02*
X008210Y002658D01*
X008215Y002641D01*
X008222Y002626D01*
X008232Y002612D01*
X008244Y002600D01*
X008258Y002590D01*
X008273Y002583D01*
X008290Y002578D01*
X008307Y002577D01*
X009843Y002577D01*
X009860Y002578D01*
X009877Y002583D01*
X009892Y002590D01*
X009906Y002600D01*
X009918Y002612D01*
X009928Y002626D01*
X009935Y002641D01*
X009940Y002658D01*
X009941Y002675D01*
D17*
X005290Y004946D02*
X004660Y004946D01*
X004660Y004947D02*
X004644Y004952D01*
X004628Y004960D01*
X004614Y004970D01*
X004602Y004982D01*
X004592Y004997D01*
X004585Y005013D01*
X004581Y005030D01*
X004580Y005047D01*
X004582Y005065D01*
X005290Y004947D02*
X005306Y004952D01*
X005322Y004960D01*
X005336Y004970D01*
X005348Y004982D01*
X005358Y004997D01*
X005365Y005013D01*
X005369Y005030D01*
X005370Y005047D01*
X005368Y005065D01*
X005368Y005615D02*
X005370Y005633D01*
X005369Y005650D01*
X005365Y005667D01*
X005358Y005683D01*
X005348Y005698D01*
X005336Y005710D01*
X005322Y005720D01*
X005306Y005728D01*
X005290Y005733D01*
X005290Y005734D02*
X004660Y005734D01*
X004660Y005733D02*
X004644Y005728D01*
X004628Y005720D01*
X004614Y005710D01*
X004602Y005698D01*
X004592Y005683D01*
X004585Y005667D01*
X004581Y005650D01*
X004580Y005633D01*
X004582Y005615D01*
X006521Y006334D02*
X006678Y006334D01*
X006678Y006846D01*
X007229Y006846D01*
X006678Y006846D02*
X006521Y006846D01*
X006678Y006334D02*
X007229Y006334D01*
X007971Y006334D02*
X008128Y006334D01*
X008128Y006846D01*
X008679Y006846D01*
X008128Y006846D02*
X007971Y006846D01*
X008128Y006334D02*
X008679Y006334D01*
M02*
