G75*
G70*
%OFA0B0*%
%FSLAX24Y24*%
%IPPOS*%
%LPD*%
%AMOC8*
5,1,8,0,0,1.08239X$1,22.5*
%
%ADD10C,0.0080*%
%ADD11C,0.0171*%
%ADD12C,0.0114*%
%ADD13C,0.0142*%
%ADD14C,0.0100*%
D10*
X007680Y002099D02*
X007680Y002259D01*
X007734Y002313D01*
X007787Y002259D01*
X007787Y002099D01*
X007894Y002099D02*
X007894Y002313D01*
X007840Y002313D01*
X007787Y002259D01*
X008049Y002259D02*
X008049Y002153D01*
X008102Y002099D01*
X008209Y002099D01*
X008262Y002153D01*
X008262Y002259D01*
X008209Y002313D01*
X008102Y002313D01*
X008049Y002259D01*
X008417Y002313D02*
X008577Y002313D01*
X008630Y002259D01*
X008630Y002153D01*
X008577Y002099D01*
X008417Y002099D01*
X008761Y002099D02*
X008815Y002099D01*
X008815Y002153D01*
X008761Y002153D01*
X008761Y002099D01*
X008969Y002153D02*
X009023Y002206D01*
X009130Y002206D01*
X009183Y002259D01*
X009130Y002313D01*
X008969Y002313D01*
X008969Y002153D02*
X009023Y002099D01*
X009183Y002099D01*
X009322Y002099D02*
X009375Y002153D01*
X009375Y002366D01*
X009428Y002313D02*
X009322Y002313D01*
X009583Y002259D02*
X009583Y002099D01*
X009797Y002099D02*
X009797Y002420D01*
X009743Y002313D02*
X009637Y002313D01*
X009583Y002259D01*
X009743Y002313D02*
X009797Y002259D01*
X009952Y002313D02*
X010112Y002313D01*
X010165Y002259D01*
X010165Y002153D01*
X010112Y002099D01*
X009952Y002099D01*
X009952Y002046D02*
X009952Y002313D01*
X009952Y002046D02*
X010005Y001993D01*
X010058Y001993D01*
X010320Y002099D02*
X010320Y002313D01*
X010533Y002313D02*
X010533Y002153D01*
X010480Y002099D01*
X010320Y002099D01*
X010688Y002153D02*
X010688Y002259D01*
X010742Y002313D01*
X010848Y002313D01*
X010902Y002259D01*
X010902Y002153D01*
X010848Y002099D01*
X010742Y002099D01*
X010688Y002153D01*
X011057Y002099D02*
X011057Y002259D01*
X011110Y002313D01*
X011217Y002313D01*
X011270Y002259D01*
X011409Y002313D02*
X011516Y002313D01*
X011462Y002366D02*
X011462Y002153D01*
X011409Y002099D01*
X011270Y002099D02*
X011270Y002420D01*
X011670Y002259D02*
X011884Y002259D01*
X012023Y002313D02*
X012129Y002313D01*
X012076Y002366D02*
X012076Y002153D01*
X012023Y002099D01*
X012284Y002153D02*
X012284Y002259D01*
X012338Y002313D01*
X012444Y002313D01*
X012498Y002259D01*
X012498Y002153D01*
X012444Y002099D01*
X012338Y002099D01*
X012284Y002153D01*
X012653Y002153D02*
X012653Y002259D01*
X012706Y002313D01*
X012866Y002313D01*
X012866Y002420D02*
X012866Y002099D01*
X012706Y002099D01*
X012653Y002153D01*
X011437Y002928D02*
X011437Y003640D01*
X011081Y003355D02*
X010939Y003142D01*
X011437Y002928D02*
X010013Y002928D01*
X010013Y003640D01*
X010151Y003668D02*
X010153Y003697D01*
X010159Y003726D01*
X010168Y003753D01*
X010181Y003779D01*
X010198Y003803D01*
X010217Y003825D01*
X010240Y003844D01*
X010264Y003859D01*
X010291Y003871D01*
X010318Y003880D01*
X010347Y003885D01*
X010376Y003886D01*
X010405Y003883D01*
X010434Y003876D01*
X010461Y003866D01*
X010486Y003852D01*
X010510Y003834D01*
X010531Y003814D01*
X010549Y003791D01*
X010564Y003766D01*
X010575Y003740D01*
X010583Y003711D01*
X010587Y003683D01*
X010587Y003653D01*
X010583Y003625D01*
X010575Y003596D01*
X010564Y003570D01*
X010549Y003545D01*
X010531Y003522D01*
X010510Y003502D01*
X010486Y003484D01*
X010461Y003470D01*
X010434Y003460D01*
X010405Y003453D01*
X010376Y003450D01*
X010347Y003451D01*
X010318Y003456D01*
X010291Y003465D01*
X010264Y003477D01*
X010240Y003492D01*
X010217Y003511D01*
X010198Y003533D01*
X010181Y003557D01*
X010168Y003583D01*
X010159Y003610D01*
X010153Y003639D01*
X010151Y003668D01*
X010013Y003640D02*
X010015Y003691D01*
X010020Y003741D01*
X010029Y003791D01*
X010042Y003841D01*
X010058Y003889D01*
X010077Y003936D01*
X010100Y003981D01*
X010126Y004025D01*
X010155Y004067D01*
X010187Y004106D01*
X010222Y004143D01*
X010259Y004178D01*
X010298Y004210D01*
X010340Y004239D01*
X010384Y004265D01*
X010429Y004288D01*
X010476Y004307D01*
X010524Y004323D01*
X010574Y004336D01*
X010624Y004345D01*
X010674Y004350D01*
X010725Y004352D01*
X010725Y004423D01*
X010938Y003141D02*
X010875Y003126D01*
X010812Y003114D01*
X010747Y003106D01*
X010683Y003101D01*
X010618Y003099D01*
X010553Y003101D01*
X010489Y003106D01*
X010424Y003114D01*
X010361Y003126D01*
X010298Y003141D01*
X010298Y003142D02*
X010227Y003284D01*
X010725Y004352D02*
X010776Y004350D01*
X010826Y004345D01*
X010876Y004336D01*
X010926Y004323D01*
X010974Y004307D01*
X011021Y004288D01*
X011066Y004265D01*
X011110Y004239D01*
X011152Y004210D01*
X011191Y004178D01*
X011228Y004143D01*
X011263Y004106D01*
X011295Y004067D01*
X011324Y004025D01*
X011350Y003981D01*
X011373Y003936D01*
X011392Y003889D01*
X011408Y003841D01*
X011421Y003791D01*
X011430Y003741D01*
X011435Y003691D01*
X011437Y003640D01*
X010582Y003711D02*
X010584Y003744D01*
X010590Y003777D01*
X010599Y003808D01*
X010612Y003839D01*
X010629Y003868D01*
X010649Y003894D01*
X010671Y003918D01*
X010697Y003940D01*
X010724Y003958D01*
X010754Y003973D01*
X010785Y003984D01*
X010818Y003992D01*
X010850Y003996D01*
X010884Y003996D01*
X010916Y003992D01*
X010949Y003984D01*
X010980Y003973D01*
X011009Y003958D01*
X011037Y003940D01*
X011063Y003918D01*
X011085Y003894D01*
X011105Y003868D01*
X011122Y003839D01*
X011135Y003808D01*
X011144Y003777D01*
X011150Y003744D01*
X011152Y003711D01*
X011150Y003678D01*
X011144Y003645D01*
X011135Y003614D01*
X011122Y003583D01*
X011105Y003554D01*
X011085Y003528D01*
X011063Y003504D01*
X011037Y003482D01*
X011010Y003464D01*
X010980Y003449D01*
X010949Y003438D01*
X010916Y003430D01*
X010884Y003426D01*
X010850Y003426D01*
X010818Y003430D01*
X010785Y003438D01*
X010754Y003449D01*
X010724Y003464D01*
X010697Y003482D01*
X010671Y003504D01*
X010649Y003528D01*
X010629Y003554D01*
X010612Y003583D01*
X010599Y003614D01*
X010590Y003645D01*
X010584Y003678D01*
X010582Y003711D01*
X009799Y002999D02*
X009822Y003026D01*
X009843Y003056D01*
X009860Y003088D01*
X009873Y003121D01*
X009883Y003156D01*
X009890Y003191D01*
X009892Y003227D01*
X009891Y003263D01*
X009885Y003299D01*
X009876Y003334D01*
X009864Y003367D01*
X009848Y003399D01*
X009828Y003430D01*
X009806Y003458D01*
X009780Y003483D01*
X009752Y003506D01*
X009722Y003526D01*
X009690Y003542D01*
X009657Y003555D01*
X009622Y003564D01*
X009586Y003569D01*
X009550Y003571D01*
X009514Y003569D01*
X009515Y003569D02*
X009549Y003583D01*
X009581Y003601D01*
X009612Y003622D01*
X009641Y003645D01*
X009667Y003671D01*
X009690Y003700D01*
X009711Y003731D01*
X009728Y003764D01*
X009742Y003798D01*
X009753Y003833D01*
X009760Y003870D01*
X009764Y003906D01*
X009764Y003944D01*
X009760Y003980D01*
X009753Y004017D01*
X009742Y004052D01*
X009728Y004086D01*
X009711Y004119D01*
X009690Y004150D01*
X009667Y004179D01*
X009641Y004205D01*
X009612Y004228D01*
X009581Y004249D01*
X009549Y004267D01*
X009515Y004281D01*
X009514Y004281D02*
X009554Y004270D01*
X009594Y004263D01*
X009634Y004260D01*
X009675Y004261D01*
X009715Y004265D01*
X009755Y004274D01*
X009793Y004286D01*
X009831Y004301D01*
X009867Y004320D01*
X009901Y004342D01*
X009932Y004368D01*
X009962Y004396D01*
X009988Y004427D01*
X010011Y004460D01*
X010032Y004495D01*
X010048Y004532D01*
X010062Y004570D01*
X010071Y004610D01*
X010077Y004650D01*
X010079Y004691D01*
X010077Y004731D01*
X010072Y004771D01*
X010062Y004811D01*
X010049Y004849D01*
X010033Y004886D01*
X010013Y004922D01*
X010227Y003284D02*
X010305Y003272D01*
X010383Y003264D01*
X010462Y003259D01*
X010540Y003258D01*
X010619Y003261D01*
X010698Y003267D01*
X010776Y003278D01*
X010853Y003292D01*
X010930Y003309D01*
X011006Y003331D01*
X011081Y003356D01*
X011579Y003070D02*
X011563Y003107D01*
X011550Y003145D01*
X011541Y003185D01*
X011535Y003225D01*
X011533Y003265D01*
X011535Y003306D01*
X011540Y003346D01*
X011549Y003385D01*
X011562Y003424D01*
X011578Y003461D01*
X011597Y003497D01*
X011619Y003530D01*
X011645Y003562D01*
X011673Y003591D01*
X011704Y003617D01*
X011737Y003641D01*
X011772Y003661D01*
X011808Y003678D01*
X011847Y003692D01*
X011886Y003702D01*
X011926Y003709D01*
X011966Y003712D01*
X012007Y003711D01*
X012007Y003712D02*
X011965Y003722D01*
X011923Y003736D01*
X011884Y003753D01*
X011846Y003774D01*
X011810Y003798D01*
X011776Y003826D01*
X011744Y003856D01*
X011716Y003888D01*
X011690Y003923D01*
X011667Y003960D01*
X011648Y003999D01*
X011632Y004040D01*
X011620Y004082D01*
X011612Y004124D01*
X011607Y004167D01*
X011606Y004211D01*
X011609Y004254D01*
X011616Y004297D01*
X011626Y004339D01*
X011640Y004381D01*
X011657Y004420D01*
X011678Y004458D01*
X011702Y004495D01*
X011730Y004528D01*
X011760Y004560D01*
X011792Y004588D01*
X011827Y004614D01*
X011864Y004637D01*
X011865Y004637D02*
X011825Y004611D01*
X011783Y004589D01*
X011740Y004570D01*
X011695Y004554D01*
X011649Y004542D01*
X011602Y004534D01*
X011555Y004530D01*
X011508Y004529D01*
X011460Y004533D01*
X011413Y004540D01*
X011367Y004551D01*
X011322Y004565D01*
X011278Y004583D01*
X011236Y004605D01*
X011196Y004630D01*
X011157Y004658D01*
X011122Y004689D01*
X011088Y004723D01*
X011058Y004759D01*
X011031Y004798D01*
X011006Y004839D01*
X010986Y004881D01*
X010968Y004926D01*
X010955Y004971D01*
X010945Y005017D01*
X010938Y005064D01*
X010939Y005064D02*
X010921Y005022D01*
X010899Y004983D01*
X010875Y004945D01*
X010847Y004909D01*
X010816Y004876D01*
X010782Y004845D01*
X010746Y004818D01*
X010708Y004793D01*
X010668Y004772D01*
X010627Y004754D01*
X010584Y004740D01*
X010540Y004729D01*
X010495Y004722D01*
X010450Y004719D01*
X010404Y004720D01*
X010359Y004724D01*
X010315Y004733D01*
X010271Y004744D01*
X010228Y004760D01*
X010187Y004779D01*
X010148Y004801D01*
X010111Y004827D01*
X010075Y004856D01*
X010043Y004887D01*
X010013Y004921D01*
D11*
X010846Y003818D02*
X010848Y003837D01*
X010854Y003855D01*
X010863Y003871D01*
X010875Y003885D01*
X010890Y003897D01*
X010907Y003905D01*
X010925Y003910D01*
X010944Y003911D01*
X010962Y003908D01*
X010980Y003901D01*
X010996Y003892D01*
X011010Y003879D01*
X011020Y003863D01*
X011028Y003846D01*
X011032Y003827D01*
X011032Y003809D01*
X011028Y003790D01*
X011020Y003773D01*
X011010Y003757D01*
X010996Y003744D01*
X010980Y003735D01*
X010962Y003728D01*
X010944Y003725D01*
X010925Y003726D01*
X010907Y003731D01*
X010890Y003739D01*
X010875Y003751D01*
X010863Y003765D01*
X010854Y003781D01*
X010848Y003799D01*
X010846Y003818D01*
D12*
X010383Y003740D02*
X010385Y003755D01*
X010391Y003768D01*
X010400Y003780D01*
X010411Y003789D01*
X010425Y003795D01*
X010440Y003797D01*
X010455Y003795D01*
X010468Y003789D01*
X010480Y003780D01*
X010489Y003769D01*
X010495Y003755D01*
X010497Y003740D01*
X010495Y003725D01*
X010489Y003712D01*
X010480Y003700D01*
X010469Y003691D01*
X010455Y003685D01*
X010440Y003683D01*
X010425Y003685D01*
X010412Y003691D01*
X010400Y003700D01*
X010391Y003711D01*
X010385Y003725D01*
X010383Y003740D01*
D13*
X010654Y004494D02*
X010656Y004510D01*
X010662Y004526D01*
X010671Y004540D01*
X010683Y004551D01*
X010697Y004559D01*
X010713Y004564D01*
X010729Y004565D01*
X010745Y004562D01*
X010760Y004555D01*
X010774Y004546D01*
X010784Y004533D01*
X010792Y004518D01*
X010796Y004502D01*
X010796Y004486D01*
X010792Y004470D01*
X010784Y004455D01*
X010774Y004442D01*
X010761Y004433D01*
X010745Y004426D01*
X010729Y004423D01*
X010713Y004424D01*
X010697Y004429D01*
X010683Y004437D01*
X010671Y004448D01*
X010662Y004462D01*
X010656Y004478D01*
X010654Y004494D01*
D14*
X005632Y001750D02*
X005632Y001530D01*
X005922Y001501D01*
X005953Y001403D01*
X006000Y001312D01*
X005816Y001086D01*
X005971Y000931D01*
X006197Y001115D01*
X006288Y001068D01*
X006417Y001380D01*
X006364Y001409D01*
X006318Y001449D01*
X006282Y001498D01*
X006258Y001553D01*
X006245Y001612D01*
X006246Y001673D01*
X006259Y001732D01*
X006285Y001787D01*
X006322Y001835D01*
X006369Y001874D01*
X006422Y001902D01*
X006481Y001918D01*
X006542Y001921D01*
X006601Y001911D01*
X006658Y001888D01*
X006708Y001854D01*
X006749Y001810D01*
X006780Y001758D01*
X006800Y001700D01*
X006806Y001640D01*
X006801Y001585D01*
X006785Y001532D01*
X006759Y001484D01*
X006724Y001441D01*
X006681Y001406D01*
X006633Y001380D01*
X006762Y001068D01*
X006853Y001115D01*
X007079Y000931D01*
X007234Y001086D01*
X007050Y001312D01*
X007097Y001403D01*
X007128Y001501D01*
X007418Y001530D01*
X007418Y001750D01*
X007128Y001779D01*
X007097Y001877D01*
X007050Y001968D01*
X007234Y002194D01*
X007079Y002349D01*
X006853Y002165D01*
X006762Y002212D01*
X006664Y002243D01*
X006635Y002533D01*
X006415Y002533D01*
X006386Y002243D01*
X006288Y002212D01*
X006197Y002165D01*
X005971Y002349D01*
X005816Y002194D01*
X006000Y001968D01*
X005953Y001877D01*
X005922Y001779D01*
X005632Y001750D01*
X005632Y001716D02*
X006256Y001716D01*
X006245Y001618D02*
X005632Y001618D01*
X005743Y001519D02*
X006273Y001519D01*
X006351Y001421D02*
X005948Y001421D01*
X005995Y001322D02*
X006393Y001322D01*
X006352Y001224D02*
X005928Y001224D01*
X005848Y001125D02*
X006312Y001125D01*
X006088Y001027D02*
X005875Y001027D01*
X006657Y001322D02*
X007055Y001322D01*
X007122Y001224D02*
X006698Y001224D01*
X006738Y001125D02*
X007202Y001125D01*
X007175Y001027D02*
X006962Y001027D01*
X007102Y001421D02*
X006699Y001421D01*
X006778Y001519D02*
X007307Y001519D01*
X007418Y001618D02*
X006804Y001618D01*
X006794Y001716D02*
X007418Y001716D01*
X007117Y001815D02*
X006745Y001815D01*
X006588Y001913D02*
X007078Y001913D01*
X007085Y002012D02*
X005965Y002012D01*
X005972Y001913D02*
X006463Y001913D01*
X006306Y001815D02*
X005933Y001815D01*
X005884Y002110D02*
X007166Y002110D01*
X007220Y002209D02*
X006907Y002209D01*
X006768Y002209D02*
X006282Y002209D01*
X006143Y002209D02*
X005830Y002209D01*
X005929Y002307D02*
X006023Y002307D01*
X006392Y002307D02*
X006658Y002307D01*
X006648Y002406D02*
X006402Y002406D01*
X006412Y002504D02*
X006638Y002504D01*
X007027Y002307D02*
X007121Y002307D01*
M02*
