G75*
G70*
%OFA0B0*%
%FSLAX24Y24*%
%IPPOS*%
%LPD*%
%AMOC8*
5,1,8,0,0,1.08239X$1,22.5*
%
%ADD10R,0.0394X0.0433*%
%ADD11R,0.0433X0.0394*%
%ADD12C,0.0700*%
%ADD13C,0.0472*%
%ADD14C,0.0709*%
%ADD15R,0.1095X0.1095*%
%ADD16R,0.0866X0.0260*%
%ADD17R,0.0945X0.0787*%
%ADD18R,0.0354X0.0354*%
%ADD19C,0.0160*%
%ADD20C,0.0270*%
%ADD21C,0.0080*%
%ADD22C,0.0100*%
D10*
X008940Y002140D03*
X009610Y002140D03*
X008560Y005190D03*
X007890Y005190D03*
X005760Y006590D03*
X005090Y006590D03*
D11*
X006440Y005890D03*
X007110Y005890D03*
X007890Y005890D03*
X008560Y005890D03*
X011240Y005240D03*
X011910Y005240D03*
X008360Y002140D03*
X007690Y002140D03*
X011240Y002040D03*
X011910Y002040D03*
D12*
X004125Y003140D03*
X004125Y004140D03*
D13*
X006125Y004140D03*
X006125Y003140D03*
D14*
X006125Y002262D03*
X006125Y005018D03*
D15*
X010125Y006240D03*
X010125Y001040D03*
D16*
X010256Y002890D03*
X010256Y003390D03*
X010256Y003890D03*
X010256Y004390D03*
X007894Y004390D03*
X007894Y003890D03*
X007894Y003390D03*
X007894Y002890D03*
D17*
X011575Y002853D03*
X011575Y004427D03*
D18*
X008778Y006590D03*
X007872Y006590D03*
X007328Y006590D03*
X006422Y006590D03*
D19*
X006422Y006108D01*
X006440Y005890D01*
X006422Y006590D02*
X005760Y006590D01*
X005090Y006590D02*
X004775Y006590D01*
X004125Y005940D01*
X004125Y004140D01*
X004125Y003140D02*
X006125Y003140D01*
X007125Y003140D01*
X007375Y003390D01*
X007894Y003390D01*
X007425Y003890D02*
X007125Y003590D01*
X007425Y003890D02*
X007894Y003890D01*
X007894Y004390D02*
X007894Y005186D01*
X007890Y005190D01*
X008560Y005190D02*
X008560Y005890D01*
X007890Y005890D02*
X007872Y006058D01*
X007872Y006590D01*
X007328Y006590D01*
X008778Y006590D02*
X009078Y006587D01*
X009275Y006390D01*
X009275Y003690D01*
X008475Y002890D01*
X008475Y002205D01*
X008360Y002140D01*
X008940Y002140D01*
X008475Y002890D02*
X008225Y002885D01*
X007894Y002890D01*
X006125Y002262D02*
X007347Y001040D01*
X010125Y001040D01*
X011240Y002040D02*
X011240Y002518D01*
X011575Y002853D01*
X011042Y003386D01*
X010256Y003390D01*
X010256Y003890D02*
X011034Y003886D01*
X011575Y004427D01*
X011240Y004762D01*
X011240Y005240D01*
D20*
X010775Y004840D03*
X008225Y002885D03*
X007125Y003590D03*
X005125Y004590D03*
X007425Y001640D03*
D21*
X007179Y000925D02*
X002854Y000925D01*
X002879Y000847D02*
X007258Y000847D01*
X007264Y000840D02*
X009458Y000840D01*
X009458Y000443D01*
X009528Y000373D01*
X010722Y000373D01*
X010792Y000443D01*
X010792Y001637D01*
X010722Y001707D01*
X009528Y001707D01*
X009458Y001637D01*
X009458Y001240D01*
X007430Y001240D01*
X006571Y002099D01*
X006599Y002168D01*
X006599Y002356D01*
X006527Y002531D01*
X006394Y002664D01*
X006219Y002736D01*
X006031Y002736D01*
X005856Y002664D01*
X005723Y002531D01*
X005651Y002356D01*
X005651Y002168D01*
X005723Y001993D01*
X005856Y001860D01*
X006031Y001788D01*
X006219Y001788D01*
X006288Y001816D01*
X007264Y000840D01*
X007101Y001004D02*
X002828Y001004D01*
X002825Y001013D02*
X002815Y001140D01*
X002815Y002150D01*
X003504Y002150D01*
X003615Y002261D01*
X003615Y005169D01*
X003504Y005280D01*
X002815Y005280D01*
X002815Y006140D01*
X002825Y006267D01*
X002903Y006508D01*
X003052Y006713D01*
X003257Y006862D01*
X003498Y006940D01*
X003625Y006950D01*
X011525Y006950D01*
X011652Y006940D01*
X011893Y006862D01*
X012098Y006713D01*
X012247Y006508D01*
X012325Y006267D01*
X012335Y006140D01*
X012335Y001140D01*
X012325Y001013D01*
X012247Y000772D01*
X012098Y000567D01*
X011893Y000418D01*
X011652Y000340D01*
X011525Y000330D01*
X003625Y000330D01*
X003498Y000340D01*
X003257Y000418D01*
X003052Y000567D01*
X002903Y000772D01*
X002825Y001013D01*
X002820Y001082D02*
X007022Y001082D01*
X006944Y001161D02*
X002815Y001161D01*
X002815Y001239D02*
X006865Y001239D01*
X006787Y001318D02*
X002815Y001318D01*
X002815Y001396D02*
X006708Y001396D01*
X006630Y001475D02*
X002815Y001475D01*
X002815Y001553D02*
X006551Y001553D01*
X006473Y001632D02*
X002815Y001632D01*
X002815Y001710D02*
X006394Y001710D01*
X006316Y001789D02*
X006221Y001789D01*
X006029Y001789D02*
X002815Y001789D01*
X002815Y001867D02*
X005849Y001867D01*
X005771Y001946D02*
X002815Y001946D01*
X002815Y002024D02*
X005710Y002024D01*
X005678Y002103D02*
X002815Y002103D01*
X003535Y002181D02*
X005651Y002181D01*
X005651Y002260D02*
X003613Y002260D01*
X003615Y002338D02*
X005651Y002338D01*
X005676Y002417D02*
X003615Y002417D01*
X003615Y002495D02*
X005708Y002495D01*
X005766Y002574D02*
X003615Y002574D01*
X003615Y002652D02*
X005844Y002652D01*
X006016Y002731D02*
X004365Y002731D01*
X004391Y002742D02*
X004523Y002874D01*
X004551Y002940D01*
X005822Y002940D01*
X005823Y002938D01*
X005923Y002838D01*
X006054Y002784D01*
X006196Y002784D01*
X006327Y002838D01*
X006427Y002938D01*
X006428Y002940D01*
X007208Y002940D01*
X007325Y003057D01*
X007410Y003142D01*
X007411Y003140D01*
X008377Y003140D01*
X008447Y003210D01*
X008447Y003570D01*
X008377Y003640D01*
X008447Y003710D01*
X008447Y004070D01*
X008377Y004140D01*
X007411Y004140D01*
X007361Y004090D01*
X007342Y004090D01*
X007225Y003973D01*
X007097Y003845D01*
X007074Y003845D01*
X006981Y003806D01*
X006909Y003734D01*
X006870Y003641D01*
X006870Y003539D01*
X006909Y003446D01*
X006981Y003374D01*
X007048Y003346D01*
X007042Y003340D01*
X006428Y003340D01*
X006427Y003342D01*
X006327Y003442D01*
X006196Y003496D01*
X006054Y003496D01*
X005923Y003442D01*
X005823Y003342D01*
X005822Y003340D01*
X004551Y003340D01*
X004523Y003406D01*
X004391Y003538D01*
X004218Y003610D01*
X004032Y003610D01*
X003859Y003538D01*
X003727Y003406D01*
X003655Y003233D01*
X003655Y003047D01*
X003727Y002874D01*
X003859Y002742D01*
X004032Y002670D01*
X004218Y002670D01*
X004391Y002742D01*
X004459Y002809D02*
X005993Y002809D01*
X005874Y002888D02*
X004529Y002888D01*
X003885Y002731D02*
X003615Y002731D01*
X003615Y002809D02*
X003791Y002809D01*
X003721Y002888D02*
X003615Y002888D01*
X003615Y002966D02*
X003688Y002966D01*
X003656Y003045D02*
X003615Y003045D01*
X003615Y003123D02*
X003655Y003123D01*
X003655Y003202D02*
X003615Y003202D01*
X003615Y003280D02*
X003674Y003280D01*
X003707Y003359D02*
X003615Y003359D01*
X003615Y003437D02*
X003757Y003437D01*
X003836Y003516D02*
X003615Y003516D01*
X003615Y003594D02*
X003993Y003594D01*
X004025Y003673D02*
X003615Y003673D01*
X003615Y003751D02*
X003849Y003751D01*
X003859Y003742D02*
X004032Y003670D01*
X004218Y003670D01*
X004391Y003742D01*
X004523Y003874D01*
X004595Y004047D01*
X004595Y004233D01*
X004523Y004406D01*
X004391Y004538D01*
X004325Y004566D01*
X004325Y005857D01*
X004783Y006315D01*
X004844Y006253D01*
X005337Y006253D01*
X005407Y006324D01*
X005407Y006856D01*
X005337Y006927D01*
X004844Y006927D01*
X004774Y006856D01*
X004774Y006790D01*
X004692Y006790D01*
X004042Y006140D01*
X003925Y006023D01*
X003925Y004566D01*
X003859Y004538D01*
X003727Y004406D01*
X003655Y004233D01*
X003655Y004047D01*
X003727Y003874D01*
X003859Y003742D01*
X003771Y003830D02*
X003615Y003830D01*
X003615Y003908D02*
X003712Y003908D01*
X003680Y003987D02*
X003615Y003987D01*
X003615Y004065D02*
X003655Y004065D01*
X003655Y004144D02*
X003615Y004144D01*
X003615Y004222D02*
X003655Y004222D01*
X003683Y004301D02*
X003615Y004301D01*
X003615Y004379D02*
X003715Y004379D01*
X003778Y004458D02*
X003615Y004458D01*
X003615Y004536D02*
X003856Y004536D01*
X003925Y004615D02*
X003615Y004615D01*
X003615Y004693D02*
X003925Y004693D01*
X003925Y004772D02*
X003615Y004772D01*
X003615Y004850D02*
X003925Y004850D01*
X003925Y004929D02*
X003615Y004929D01*
X003615Y005007D02*
X003925Y005007D01*
X003925Y005086D02*
X003615Y005086D01*
X003615Y005164D02*
X003925Y005164D01*
X003925Y005243D02*
X003541Y005243D01*
X003925Y005321D02*
X002815Y005321D01*
X002815Y005400D02*
X003925Y005400D01*
X003925Y005478D02*
X002815Y005478D01*
X002815Y005557D02*
X003925Y005557D01*
X003925Y005635D02*
X002815Y005635D01*
X002815Y005714D02*
X003925Y005714D01*
X003925Y005792D02*
X002815Y005792D01*
X002815Y005871D02*
X003925Y005871D01*
X003925Y005949D02*
X002815Y005949D01*
X002815Y006028D02*
X003930Y006028D01*
X004008Y006106D02*
X002815Y006106D01*
X002819Y006185D02*
X004087Y006185D01*
X004165Y006263D02*
X002825Y006263D01*
X002849Y006342D02*
X004244Y006342D01*
X004322Y006420D02*
X002875Y006420D01*
X002900Y006499D02*
X004401Y006499D01*
X004479Y006577D02*
X002954Y006577D01*
X003011Y006656D02*
X004558Y006656D01*
X004636Y006734D02*
X003082Y006734D01*
X003190Y006813D02*
X004774Y006813D01*
X004808Y006891D02*
X003347Y006891D01*
X004652Y006185D02*
X006152Y006185D01*
X006174Y006207D02*
X006104Y006137D01*
X006104Y005643D01*
X006174Y005573D01*
X006707Y005573D01*
X006766Y005633D01*
X006781Y005607D01*
X006807Y005581D01*
X006839Y005563D01*
X006875Y005553D01*
X007070Y005553D01*
X007070Y005850D01*
X007150Y005850D01*
X007150Y005930D01*
X007466Y005930D01*
X007466Y006105D01*
X007457Y006141D01*
X007438Y006173D01*
X007412Y006199D01*
X007380Y006217D01*
X007345Y006227D01*
X007150Y006227D01*
X007150Y005930D01*
X007070Y005930D01*
X007070Y006227D01*
X006875Y006227D01*
X006839Y006217D01*
X006807Y006199D01*
X006781Y006173D01*
X006766Y006147D01*
X006707Y006207D01*
X006622Y006207D01*
X006622Y006293D01*
X006649Y006293D01*
X006719Y006363D01*
X006719Y006817D01*
X006649Y006887D01*
X006195Y006887D01*
X006125Y006817D01*
X006125Y006790D01*
X006076Y006790D01*
X006076Y006856D01*
X006006Y006927D01*
X005513Y006927D01*
X005443Y006856D01*
X005443Y006324D01*
X005513Y006253D01*
X006006Y006253D01*
X006076Y006324D01*
X006076Y006390D01*
X006125Y006390D01*
X006125Y006363D01*
X006195Y006293D01*
X006222Y006293D01*
X006222Y006207D01*
X006174Y006207D01*
X006222Y006263D02*
X006016Y006263D01*
X006076Y006342D02*
X006147Y006342D01*
X006104Y006106D02*
X004574Y006106D01*
X004495Y006028D02*
X006104Y006028D01*
X006104Y005949D02*
X004417Y005949D01*
X004338Y005871D02*
X006104Y005871D01*
X006104Y005792D02*
X004325Y005792D01*
X004325Y005714D02*
X006104Y005714D01*
X006112Y005635D02*
X004325Y005635D01*
X004325Y005557D02*
X006862Y005557D01*
X007070Y005557D02*
X007150Y005557D01*
X007150Y005553D02*
X007345Y005553D01*
X007380Y005563D01*
X007412Y005581D01*
X007438Y005607D01*
X007457Y005639D01*
X007466Y005675D01*
X007466Y005850D01*
X007150Y005850D01*
X007150Y005553D01*
X007150Y005635D02*
X007070Y005635D01*
X007070Y005714D02*
X007150Y005714D01*
X007150Y005792D02*
X007070Y005792D01*
X007150Y005871D02*
X007554Y005871D01*
X007554Y005949D02*
X007466Y005949D01*
X007466Y006028D02*
X007554Y006028D01*
X007554Y006106D02*
X007466Y006106D01*
X007426Y006185D02*
X007602Y006185D01*
X007624Y006207D02*
X007554Y006137D01*
X007554Y005643D01*
X007624Y005573D01*
X008157Y005573D01*
X008225Y005642D01*
X008293Y005573D01*
X008360Y005573D01*
X008360Y005527D01*
X008313Y005527D01*
X008243Y005456D01*
X008243Y004924D01*
X008313Y004853D01*
X008806Y004853D01*
X008876Y004924D01*
X008876Y005456D01*
X008806Y005527D01*
X008760Y005527D01*
X008760Y005573D01*
X008826Y005573D01*
X008896Y005643D01*
X008896Y006137D01*
X008826Y006207D01*
X008293Y006207D01*
X008225Y006138D01*
X008157Y006207D01*
X008072Y006207D01*
X008072Y006293D01*
X008099Y006293D01*
X008169Y006363D01*
X008169Y006817D01*
X008099Y006887D01*
X007645Y006887D01*
X007600Y006842D01*
X007555Y006887D01*
X007101Y006887D01*
X007031Y006817D01*
X007031Y006363D01*
X007101Y006293D01*
X007555Y006293D01*
X007600Y006338D01*
X007645Y006293D01*
X007672Y006293D01*
X007672Y006207D01*
X007624Y006207D01*
X007672Y006263D02*
X006622Y006263D01*
X006698Y006342D02*
X007052Y006342D01*
X007031Y006420D02*
X006719Y006420D01*
X006719Y006499D02*
X007031Y006499D01*
X007031Y006577D02*
X006719Y006577D01*
X006719Y006656D02*
X007031Y006656D01*
X007031Y006734D02*
X006719Y006734D01*
X006719Y006813D02*
X007031Y006813D01*
X006125Y006813D02*
X006076Y006813D01*
X006042Y006891D02*
X009511Y006891D01*
X009528Y006907D02*
X009458Y006837D01*
X009458Y006490D01*
X009358Y006590D01*
X009220Y006728D01*
X009162Y006786D01*
X009161Y006786D01*
X009161Y006787D01*
X009079Y006787D01*
X009075Y006787D01*
X009075Y006817D01*
X009005Y006887D01*
X008551Y006887D01*
X008481Y006817D01*
X008481Y006363D01*
X008551Y006293D01*
X009005Y006293D01*
X009047Y006335D01*
X009075Y006307D01*
X009075Y003773D01*
X008409Y003107D01*
X008377Y003140D01*
X008276Y003140D01*
X008276Y003140D01*
X008174Y003140D01*
X007411Y003140D01*
X007341Y003070D01*
X007341Y002710D01*
X007411Y002640D01*
X008150Y002640D01*
X008174Y002630D01*
X008275Y002630D01*
X008275Y002457D01*
X008093Y002457D01*
X008034Y002397D01*
X008019Y002423D01*
X007993Y002449D01*
X007961Y002467D01*
X007925Y002477D01*
X007730Y002477D01*
X007730Y002180D01*
X007650Y002180D01*
X007650Y002100D01*
X007334Y002100D01*
X007334Y001925D01*
X007343Y001889D01*
X007347Y001884D01*
X007281Y001856D01*
X007209Y001784D01*
X007170Y001691D01*
X007170Y001589D01*
X007209Y001496D01*
X007281Y001424D01*
X007374Y001385D01*
X007476Y001385D01*
X007569Y001424D01*
X007616Y001470D01*
X009195Y001470D01*
X009295Y001570D01*
X009529Y001803D01*
X009856Y001803D01*
X009926Y001874D01*
X009926Y002406D01*
X009856Y002477D01*
X009780Y002477D01*
X009780Y002640D01*
X010739Y002640D01*
X010809Y002710D01*
X010809Y003070D01*
X010739Y003140D01*
X010786Y003187D01*
X010958Y003186D01*
X010983Y003162D01*
X010983Y002409D01*
X011035Y002357D01*
X010974Y002357D01*
X010904Y002287D01*
X010904Y001793D01*
X010974Y001723D01*
X011507Y001723D01*
X011566Y001783D01*
X011581Y001757D01*
X011607Y001731D01*
X011639Y001713D01*
X011675Y001703D01*
X011870Y001703D01*
X011870Y002000D01*
X011950Y002000D01*
X011950Y002080D01*
X012266Y002080D01*
X012266Y002255D01*
X012257Y002291D01*
X012238Y002323D01*
X012212Y002349D01*
X012180Y002367D01*
X012145Y002377D01*
X012135Y002377D01*
X012167Y002409D01*
X012167Y003296D01*
X012097Y003366D01*
X011344Y003366D01*
X011183Y003527D01*
X011125Y003586D01*
X011124Y003586D01*
X011042Y003586D01*
X010791Y003587D01*
X010739Y003640D01*
X010786Y003687D01*
X010950Y003686D01*
X010951Y003686D01*
X011033Y003686D01*
X011115Y003686D01*
X011116Y003686D01*
X011117Y003686D01*
X011175Y003744D01*
X011233Y003802D01*
X011233Y003803D01*
X011344Y003914D01*
X012097Y003914D01*
X012167Y003984D01*
X012167Y004871D01*
X012135Y004903D01*
X012145Y004903D01*
X012180Y004913D01*
X012212Y004931D01*
X012238Y004957D01*
X012257Y004989D01*
X012266Y005025D01*
X012266Y005200D01*
X011950Y005200D01*
X011950Y005280D01*
X012266Y005280D01*
X012266Y005455D01*
X012257Y005491D01*
X012238Y005523D01*
X012212Y005549D01*
X012180Y005567D01*
X012145Y005577D01*
X011950Y005577D01*
X011950Y005280D01*
X011870Y005280D01*
X011870Y005577D01*
X011675Y005577D01*
X011639Y005567D01*
X011607Y005549D01*
X011581Y005523D01*
X011566Y005497D01*
X011507Y005557D01*
X010974Y005557D01*
X010904Y005487D01*
X010904Y004993D01*
X010974Y004923D01*
X011035Y004923D01*
X010983Y004871D01*
X010983Y004118D01*
X010951Y004086D01*
X010792Y004087D01*
X010747Y004132D01*
X010775Y004148D01*
X010801Y004174D01*
X010820Y004206D01*
X010829Y004242D01*
X010829Y004365D01*
X010281Y004365D01*
X010281Y004140D01*
X010231Y004140D01*
X010231Y004365D01*
X009683Y004365D01*
X009683Y004242D01*
X009693Y004206D01*
X009711Y004174D01*
X009737Y004148D01*
X009765Y004132D01*
X009703Y004070D01*
X009703Y003710D01*
X009773Y003640D01*
X010739Y003640D01*
X009773Y003640D01*
X009703Y003570D01*
X009703Y003210D01*
X009773Y003140D01*
X010739Y003140D01*
X009773Y003140D01*
X009703Y003070D01*
X009703Y003058D01*
X009605Y002960D01*
X009440Y002795D01*
X009440Y002477D01*
X009363Y002477D01*
X009293Y002406D01*
X009293Y002048D01*
X009257Y002013D01*
X009257Y002406D01*
X009187Y002477D01*
X008694Y002477D01*
X008675Y002458D01*
X008675Y002807D01*
X009358Y003490D01*
X009475Y003607D01*
X009475Y005625D01*
X009528Y005573D01*
X010722Y005573D01*
X010792Y005643D01*
X010792Y006837D01*
X010722Y006907D01*
X009528Y006907D01*
X009458Y006813D02*
X009075Y006813D01*
X009214Y006734D02*
X009458Y006734D01*
X009458Y006656D02*
X009292Y006656D01*
X009371Y006577D02*
X009458Y006577D01*
X009449Y006499D02*
X009458Y006499D01*
X009075Y006263D02*
X008072Y006263D01*
X008148Y006342D02*
X008502Y006342D01*
X008481Y006420D02*
X008169Y006420D01*
X008169Y006499D02*
X008481Y006499D01*
X008481Y006577D02*
X008169Y006577D01*
X008169Y006656D02*
X008481Y006656D01*
X008481Y006734D02*
X008169Y006734D01*
X008169Y006813D02*
X008481Y006813D01*
X008271Y006185D02*
X008179Y006185D01*
X008848Y006185D02*
X009075Y006185D01*
X009075Y006106D02*
X008896Y006106D01*
X008896Y006028D02*
X009075Y006028D01*
X009075Y005949D02*
X008896Y005949D01*
X008896Y005871D02*
X009075Y005871D01*
X009075Y005792D02*
X008896Y005792D01*
X008896Y005714D02*
X009075Y005714D01*
X009075Y005635D02*
X008888Y005635D01*
X008760Y005557D02*
X009075Y005557D01*
X009075Y005478D02*
X008855Y005478D01*
X008876Y005400D02*
X009075Y005400D01*
X009075Y005321D02*
X008876Y005321D01*
X008876Y005243D02*
X009075Y005243D01*
X009075Y005164D02*
X008876Y005164D01*
X008876Y005086D02*
X009075Y005086D01*
X009075Y005007D02*
X008876Y005007D01*
X008876Y004929D02*
X009075Y004929D01*
X009075Y004850D02*
X008094Y004850D01*
X008094Y004853D02*
X008137Y004853D01*
X008207Y004924D01*
X008207Y005456D01*
X008137Y005527D01*
X007644Y005527D01*
X007574Y005456D01*
X007574Y004924D01*
X007644Y004853D01*
X007694Y004853D01*
X007694Y004640D01*
X007411Y004640D01*
X007341Y004570D01*
X007341Y004560D01*
X007155Y004560D01*
X007055Y004460D01*
X006905Y004310D01*
X006440Y004310D01*
X006427Y004342D01*
X006327Y004442D01*
X006196Y004496D01*
X006054Y004496D01*
X005923Y004442D01*
X005823Y004342D01*
X005769Y004211D01*
X005769Y004069D01*
X005823Y003938D01*
X005923Y003838D01*
X006054Y003784D01*
X006196Y003784D01*
X006327Y003838D01*
X006427Y003938D01*
X006440Y003970D01*
X007045Y003970D01*
X007295Y004220D01*
X007341Y004220D01*
X007341Y004210D01*
X007411Y004140D01*
X008377Y004140D01*
X008447Y004210D01*
X008447Y004570D01*
X008377Y004640D01*
X008094Y004640D01*
X008094Y004853D01*
X008094Y004772D02*
X009075Y004772D01*
X009075Y004693D02*
X008094Y004693D01*
X008207Y004929D02*
X008243Y004929D01*
X008243Y005007D02*
X008207Y005007D01*
X008207Y005086D02*
X008243Y005086D01*
X008243Y005164D02*
X008207Y005164D01*
X008207Y005243D02*
X008243Y005243D01*
X008243Y005321D02*
X008207Y005321D01*
X008207Y005400D02*
X008243Y005400D01*
X008265Y005478D02*
X008185Y005478D01*
X008218Y005635D02*
X008232Y005635D01*
X008360Y005557D02*
X007357Y005557D01*
X007454Y005635D02*
X007562Y005635D01*
X007554Y005714D02*
X007466Y005714D01*
X007466Y005792D02*
X007554Y005792D01*
X007150Y005949D02*
X007070Y005949D01*
X007070Y006028D02*
X007150Y006028D01*
X007150Y006106D02*
X007070Y006106D01*
X007070Y006185D02*
X007150Y006185D01*
X006793Y006185D02*
X006729Y006185D01*
X006394Y005420D02*
X006219Y005492D01*
X006031Y005492D01*
X005856Y005420D01*
X005723Y005287D01*
X005651Y005112D01*
X005651Y004924D01*
X005723Y004749D01*
X005856Y004616D01*
X006031Y004544D01*
X006219Y004544D01*
X006394Y004616D01*
X006527Y004749D01*
X006599Y004924D01*
X006599Y005112D01*
X006527Y005287D01*
X006394Y005420D01*
X006414Y005400D02*
X007574Y005400D01*
X007574Y005321D02*
X006493Y005321D01*
X006545Y005243D02*
X007574Y005243D01*
X007574Y005164D02*
X006578Y005164D01*
X006599Y005086D02*
X007574Y005086D01*
X007574Y005007D02*
X006599Y005007D01*
X006599Y004929D02*
X007574Y004929D01*
X007694Y004850D02*
X006569Y004850D01*
X006536Y004772D02*
X007694Y004772D01*
X007694Y004693D02*
X006471Y004693D01*
X006390Y004615D02*
X007386Y004615D01*
X007131Y004536D02*
X004394Y004536D01*
X004325Y004615D02*
X005859Y004615D01*
X005779Y004693D02*
X004325Y004693D01*
X004325Y004772D02*
X005714Y004772D01*
X005681Y004850D02*
X004325Y004850D01*
X004325Y004929D02*
X005651Y004929D01*
X005651Y005007D02*
X004325Y005007D01*
X004325Y005086D02*
X005651Y005086D01*
X005672Y005164D02*
X004325Y005164D01*
X004325Y005243D02*
X005705Y005243D01*
X005757Y005321D02*
X004325Y005321D01*
X004325Y005400D02*
X005836Y005400D01*
X005996Y005478D02*
X004325Y005478D01*
X004731Y006263D02*
X004834Y006263D01*
X005346Y006263D02*
X005504Y006263D01*
X005443Y006342D02*
X005407Y006342D01*
X005407Y006420D02*
X005443Y006420D01*
X005443Y006499D02*
X005407Y006499D01*
X005407Y006577D02*
X005443Y006577D01*
X005443Y006656D02*
X005407Y006656D01*
X005407Y006734D02*
X005443Y006734D01*
X005443Y006813D02*
X005407Y006813D01*
X005372Y006891D02*
X005478Y006891D01*
X006254Y005478D02*
X007595Y005478D01*
X008402Y004615D02*
X009075Y004615D01*
X009075Y004536D02*
X008447Y004536D01*
X008447Y004458D02*
X009075Y004458D01*
X009075Y004379D02*
X008447Y004379D01*
X008447Y004301D02*
X009075Y004301D01*
X009075Y004222D02*
X008447Y004222D01*
X008380Y004144D02*
X009075Y004144D01*
X009075Y004065D02*
X008447Y004065D01*
X008447Y003987D02*
X009075Y003987D01*
X009075Y003908D02*
X008447Y003908D01*
X008447Y003830D02*
X009075Y003830D01*
X009053Y003751D02*
X008447Y003751D01*
X008409Y003673D02*
X008975Y003673D01*
X008896Y003594D02*
X008423Y003594D01*
X008377Y003640D02*
X007458Y003640D01*
X008377Y003640D01*
X008447Y003516D02*
X008818Y003516D01*
X008739Y003437D02*
X008447Y003437D01*
X008447Y003359D02*
X008661Y003359D01*
X008582Y003280D02*
X008447Y003280D01*
X008438Y003202D02*
X008504Y003202D01*
X008425Y003123D02*
X008394Y003123D01*
X008174Y003140D02*
X008174Y003140D01*
X008677Y002809D02*
X009454Y002809D01*
X009440Y002731D02*
X008675Y002731D01*
X008675Y002652D02*
X009440Y002652D01*
X009440Y002574D02*
X008675Y002574D01*
X008675Y002495D02*
X009440Y002495D01*
X009303Y002417D02*
X009247Y002417D01*
X009257Y002338D02*
X009293Y002338D01*
X009293Y002260D02*
X009257Y002260D01*
X009257Y002181D02*
X009293Y002181D01*
X009293Y002103D02*
X009257Y002103D01*
X009257Y002024D02*
X009269Y002024D01*
X009514Y001789D02*
X010909Y001789D01*
X010904Y001867D02*
X009920Y001867D01*
X009926Y001946D02*
X010904Y001946D01*
X010904Y002024D02*
X009926Y002024D01*
X009926Y002103D02*
X010904Y002103D01*
X010904Y002181D02*
X009926Y002181D01*
X009926Y002260D02*
X010904Y002260D01*
X010955Y002338D02*
X009926Y002338D01*
X009916Y002417D02*
X010983Y002417D01*
X010983Y002495D02*
X009780Y002495D01*
X009780Y002574D02*
X010983Y002574D01*
X010983Y002652D02*
X010751Y002652D01*
X010809Y002731D02*
X010983Y002731D01*
X010983Y002809D02*
X010809Y002809D01*
X010809Y002888D02*
X010983Y002888D01*
X010983Y002966D02*
X010809Y002966D01*
X010809Y003045D02*
X010983Y003045D01*
X010983Y003123D02*
X010756Y003123D01*
X011273Y003437D02*
X012335Y003437D01*
X012335Y003359D02*
X012105Y003359D01*
X012167Y003280D02*
X012335Y003280D01*
X012335Y003202D02*
X012167Y003202D01*
X012167Y003123D02*
X012335Y003123D01*
X012335Y003045D02*
X012167Y003045D01*
X012167Y002966D02*
X012335Y002966D01*
X012335Y002888D02*
X012167Y002888D01*
X012167Y002809D02*
X012335Y002809D01*
X012335Y002731D02*
X012167Y002731D01*
X012167Y002652D02*
X012335Y002652D01*
X012335Y002574D02*
X012167Y002574D01*
X012167Y002495D02*
X012335Y002495D01*
X012335Y002417D02*
X012167Y002417D01*
X012223Y002338D02*
X012335Y002338D01*
X012335Y002260D02*
X012265Y002260D01*
X012266Y002181D02*
X012335Y002181D01*
X012335Y002103D02*
X012266Y002103D01*
X012266Y002000D02*
X011950Y002000D01*
X011950Y001703D01*
X012145Y001703D01*
X012180Y001713D01*
X012212Y001731D01*
X012238Y001757D01*
X012257Y001789D01*
X012266Y001825D01*
X012266Y002000D01*
X012266Y001946D02*
X012335Y001946D01*
X012335Y002024D02*
X011950Y002024D01*
X011950Y001946D02*
X011870Y001946D01*
X011870Y001867D02*
X011950Y001867D01*
X011950Y001789D02*
X011870Y001789D01*
X011870Y001710D02*
X011950Y001710D01*
X012170Y001710D02*
X012335Y001710D01*
X012335Y001632D02*
X010792Y001632D01*
X010792Y001553D02*
X012335Y001553D01*
X012335Y001475D02*
X010792Y001475D01*
X010792Y001396D02*
X012335Y001396D01*
X012335Y001318D02*
X010792Y001318D01*
X010792Y001239D02*
X012335Y001239D01*
X012335Y001161D02*
X010792Y001161D01*
X010792Y001082D02*
X012330Y001082D01*
X012322Y001004D02*
X010792Y001004D01*
X010792Y000925D02*
X012296Y000925D01*
X012271Y000847D02*
X010792Y000847D01*
X010792Y000768D02*
X012244Y000768D01*
X012187Y000690D02*
X010792Y000690D01*
X010792Y000611D02*
X012130Y000611D01*
X012050Y000533D02*
X010792Y000533D01*
X010792Y000454D02*
X011942Y000454D01*
X011761Y000376D02*
X010725Y000376D01*
X009525Y000376D02*
X003389Y000376D01*
X003208Y000454D02*
X009458Y000454D01*
X009458Y000533D02*
X003100Y000533D01*
X003020Y000611D02*
X009458Y000611D01*
X009458Y000690D02*
X002963Y000690D01*
X002906Y000768D02*
X009458Y000768D01*
X009458Y001318D02*
X007352Y001318D01*
X007348Y001396D02*
X007274Y001396D01*
X007230Y001475D02*
X007195Y001475D01*
X007185Y001553D02*
X007117Y001553D01*
X007170Y001632D02*
X007038Y001632D01*
X006960Y001710D02*
X007178Y001710D01*
X007213Y001789D02*
X006881Y001789D01*
X006803Y001867D02*
X007307Y001867D01*
X007334Y001946D02*
X006724Y001946D01*
X006646Y002024D02*
X007334Y002024D01*
X007334Y002180D02*
X007650Y002180D01*
X007650Y002477D01*
X007455Y002477D01*
X007420Y002467D01*
X007388Y002449D01*
X007362Y002423D01*
X007343Y002391D01*
X007334Y002355D01*
X007334Y002180D01*
X007334Y002181D02*
X006599Y002181D01*
X006572Y002103D02*
X007650Y002103D01*
X007650Y002181D02*
X007730Y002181D01*
X007730Y002260D02*
X007650Y002260D01*
X007650Y002338D02*
X007730Y002338D01*
X007730Y002417D02*
X007650Y002417D01*
X007358Y002417D02*
X006574Y002417D01*
X006599Y002338D02*
X007334Y002338D01*
X007334Y002260D02*
X006599Y002260D01*
X006542Y002495D02*
X008275Y002495D01*
X008275Y002574D02*
X006484Y002574D01*
X006406Y002652D02*
X007399Y002652D01*
X007341Y002731D02*
X006234Y002731D01*
X006257Y002809D02*
X007341Y002809D01*
X007341Y002888D02*
X006376Y002888D01*
X006410Y003359D02*
X007018Y003359D01*
X006917Y003437D02*
X006332Y003437D01*
X005918Y003437D02*
X004493Y003437D01*
X004543Y003359D02*
X005840Y003359D01*
X005944Y003830D02*
X004479Y003830D01*
X004538Y003908D02*
X005853Y003908D01*
X005803Y003987D02*
X004570Y003987D01*
X004595Y004065D02*
X005770Y004065D01*
X005769Y004144D02*
X004595Y004144D01*
X004595Y004222D02*
X005773Y004222D01*
X005806Y004301D02*
X004567Y004301D01*
X004535Y004379D02*
X005860Y004379D01*
X005961Y004458D02*
X004472Y004458D01*
X004401Y003751D02*
X006925Y003751D01*
X006883Y003673D02*
X004225Y003673D01*
X004257Y003594D02*
X006870Y003594D01*
X006880Y003516D02*
X004414Y003516D01*
X006306Y003830D02*
X007037Y003830D01*
X007160Y003908D02*
X006397Y003908D01*
X007062Y003987D02*
X007239Y003987D01*
X007317Y004065D02*
X007140Y004065D01*
X007219Y004144D02*
X007408Y004144D01*
X006974Y004379D02*
X006390Y004379D01*
X006289Y004458D02*
X007052Y004458D01*
X007458Y003640D02*
X007458Y003640D01*
X007394Y003123D02*
X007391Y003123D01*
X007341Y003045D02*
X007312Y003045D01*
X007341Y002966D02*
X007234Y002966D01*
X008023Y002417D02*
X008053Y002417D01*
X008755Y002888D02*
X009532Y002888D01*
X009611Y002966D02*
X008834Y002966D01*
X008912Y003045D02*
X009689Y003045D01*
X009756Y003123D02*
X008991Y003123D01*
X009069Y003202D02*
X009712Y003202D01*
X009703Y003280D02*
X009148Y003280D01*
X009226Y003359D02*
X009703Y003359D01*
X009703Y003437D02*
X009305Y003437D01*
X009383Y003516D02*
X009703Y003516D01*
X009727Y003594D02*
X009462Y003594D01*
X009475Y003673D02*
X009741Y003673D01*
X009703Y003751D02*
X009475Y003751D01*
X009475Y003830D02*
X009703Y003830D01*
X009703Y003908D02*
X009475Y003908D01*
X009475Y003987D02*
X009703Y003987D01*
X009703Y004065D02*
X009475Y004065D01*
X009475Y004144D02*
X009745Y004144D01*
X009688Y004222D02*
X009475Y004222D01*
X009475Y004301D02*
X009683Y004301D01*
X009683Y004415D02*
X009683Y004538D01*
X009693Y004574D01*
X009711Y004606D01*
X009737Y004632D01*
X009769Y004650D01*
X009805Y004660D01*
X010231Y004660D01*
X010231Y004415D01*
X010231Y004365D01*
X010281Y004365D01*
X010281Y004415D01*
X010231Y004415D01*
X009683Y004415D01*
X009683Y004458D02*
X009475Y004458D01*
X009475Y004536D02*
X009683Y004536D01*
X009720Y004615D02*
X009475Y004615D01*
X009475Y004693D02*
X010983Y004693D01*
X010983Y004615D02*
X010793Y004615D01*
X010801Y004606D02*
X010775Y004632D01*
X010743Y004650D01*
X010708Y004660D01*
X010281Y004660D01*
X010281Y004415D01*
X010829Y004415D01*
X010829Y004538D01*
X010820Y004574D01*
X010801Y004606D01*
X010829Y004536D02*
X010983Y004536D01*
X010983Y004458D02*
X010829Y004458D01*
X010983Y004379D02*
X010281Y004379D01*
X010231Y004379D02*
X009475Y004379D01*
X009475Y004772D02*
X010983Y004772D01*
X010983Y004850D02*
X009475Y004850D01*
X009475Y004929D02*
X010969Y004929D01*
X010904Y005007D02*
X009475Y005007D01*
X009475Y005086D02*
X010904Y005086D01*
X010904Y005164D02*
X009475Y005164D01*
X009475Y005243D02*
X010904Y005243D01*
X010904Y005321D02*
X009475Y005321D01*
X009475Y005400D02*
X010904Y005400D01*
X010904Y005478D02*
X009475Y005478D01*
X009475Y005557D02*
X010974Y005557D01*
X010785Y005635D02*
X012335Y005635D01*
X012335Y005557D02*
X012199Y005557D01*
X012260Y005478D02*
X012335Y005478D01*
X012335Y005400D02*
X012266Y005400D01*
X012266Y005321D02*
X012335Y005321D01*
X012335Y005243D02*
X011950Y005243D01*
X011950Y005321D02*
X011870Y005321D01*
X011870Y005400D02*
X011950Y005400D01*
X011950Y005478D02*
X011870Y005478D01*
X011870Y005557D02*
X011950Y005557D01*
X011620Y005557D02*
X011507Y005557D01*
X010792Y005714D02*
X012335Y005714D01*
X012335Y005792D02*
X010792Y005792D01*
X010792Y005871D02*
X012335Y005871D01*
X012335Y005949D02*
X010792Y005949D01*
X010792Y006028D02*
X012335Y006028D01*
X012335Y006106D02*
X010792Y006106D01*
X010792Y006185D02*
X012331Y006185D01*
X012325Y006263D02*
X010792Y006263D01*
X010792Y006342D02*
X012301Y006342D01*
X012275Y006420D02*
X010792Y006420D01*
X010792Y006499D02*
X012250Y006499D01*
X012196Y006577D02*
X010792Y006577D01*
X010792Y006656D02*
X012139Y006656D01*
X012068Y006734D02*
X010792Y006734D01*
X010792Y006813D02*
X011960Y006813D01*
X011803Y006891D02*
X010739Y006891D01*
X012266Y005164D02*
X012335Y005164D01*
X012335Y005086D02*
X012266Y005086D01*
X012261Y005007D02*
X012335Y005007D01*
X012335Y004929D02*
X012208Y004929D01*
X012167Y004850D02*
X012335Y004850D01*
X012335Y004772D02*
X012167Y004772D01*
X012167Y004693D02*
X012335Y004693D01*
X012335Y004615D02*
X012167Y004615D01*
X012167Y004536D02*
X012335Y004536D01*
X012335Y004458D02*
X012167Y004458D01*
X012167Y004379D02*
X012335Y004379D01*
X012335Y004301D02*
X012167Y004301D01*
X012167Y004222D02*
X012335Y004222D01*
X012335Y004144D02*
X012167Y004144D01*
X012167Y004065D02*
X012335Y004065D01*
X012335Y003987D02*
X012167Y003987D01*
X012335Y003908D02*
X011338Y003908D01*
X011260Y003830D02*
X012335Y003830D01*
X012335Y003751D02*
X011182Y003751D01*
X011125Y003586D02*
X011125Y003586D01*
X011195Y003516D02*
X012335Y003516D01*
X012335Y003594D02*
X010785Y003594D01*
X010771Y003673D02*
X012335Y003673D01*
X010983Y004144D02*
X010767Y004144D01*
X010824Y004222D02*
X010983Y004222D01*
X010983Y004301D02*
X010829Y004301D01*
X010281Y004301D02*
X010231Y004301D01*
X010231Y004222D02*
X010281Y004222D01*
X010281Y004144D02*
X010231Y004144D01*
X010231Y004458D02*
X010281Y004458D01*
X010281Y004536D02*
X010231Y004536D01*
X010231Y004615D02*
X010281Y004615D01*
X012266Y001867D02*
X012335Y001867D01*
X012335Y001789D02*
X012256Y001789D01*
X011649Y001710D02*
X009435Y001710D01*
X009458Y001632D02*
X009357Y001632D01*
X009295Y001570D02*
X009295Y001570D01*
X009278Y001553D02*
X009458Y001553D01*
X009458Y001475D02*
X009200Y001475D01*
X009458Y001396D02*
X007502Y001396D01*
D22*
X007425Y001640D02*
X009125Y001640D01*
X009575Y002090D01*
X009610Y002140D01*
X009610Y002725D01*
X009775Y002890D01*
X010256Y002890D01*
X007894Y004390D02*
X007225Y004390D01*
X006975Y004140D01*
X006125Y004140D01*
M02*
