G75*
%MOIN*%
%OFA0B0*%
%FSLAX24Y24*%
%IPPOS*%
%LPD*%
%AMOC8*
5,1,8,0,0,1.08239X$1,22.5*
%
%ADD10C,0.0000*%
D10*
X002625Y001140D02*
X002625Y002340D01*
X003425Y002340D01*
X003425Y005090D01*
X002625Y005090D01*
X002625Y006140D01*
X002627Y006200D01*
X002632Y006261D01*
X002641Y006320D01*
X002654Y006379D01*
X002670Y006438D01*
X002690Y006495D01*
X002713Y006550D01*
X002740Y006605D01*
X002769Y006657D01*
X002802Y006708D01*
X002838Y006757D01*
X002876Y006803D01*
X002918Y006847D01*
X002962Y006889D01*
X003008Y006927D01*
X003057Y006963D01*
X003108Y006996D01*
X003160Y007025D01*
X003215Y007052D01*
X003270Y007075D01*
X003327Y007095D01*
X003386Y007111D01*
X003445Y007124D01*
X003504Y007133D01*
X003565Y007138D01*
X003625Y007140D01*
X011525Y007140D01*
X011585Y007138D01*
X011646Y007133D01*
X011705Y007124D01*
X011764Y007111D01*
X011823Y007095D01*
X011880Y007075D01*
X011935Y007052D01*
X011990Y007025D01*
X012042Y006996D01*
X012093Y006963D01*
X012142Y006927D01*
X012188Y006889D01*
X012232Y006847D01*
X012274Y006803D01*
X012312Y006757D01*
X012348Y006708D01*
X012381Y006657D01*
X012410Y006605D01*
X012437Y006550D01*
X012460Y006495D01*
X012480Y006438D01*
X012496Y006379D01*
X012509Y006320D01*
X012518Y006261D01*
X012523Y006200D01*
X012525Y006140D01*
X012525Y001140D01*
X012523Y001080D01*
X012518Y001019D01*
X012509Y000960D01*
X012496Y000901D01*
X012480Y000842D01*
X012460Y000785D01*
X012437Y000730D01*
X012410Y000675D01*
X012381Y000623D01*
X012348Y000572D01*
X012312Y000523D01*
X012274Y000477D01*
X012232Y000433D01*
X012188Y000391D01*
X012142Y000353D01*
X012093Y000317D01*
X012042Y000284D01*
X011990Y000255D01*
X011935Y000228D01*
X011880Y000205D01*
X011823Y000185D01*
X011764Y000169D01*
X011705Y000156D01*
X011646Y000147D01*
X011585Y000142D01*
X011525Y000140D01*
X003625Y000140D01*
X003565Y000142D01*
X003504Y000147D01*
X003445Y000156D01*
X003386Y000169D01*
X003327Y000185D01*
X003270Y000205D01*
X003215Y000228D01*
X003160Y000255D01*
X003108Y000284D01*
X003057Y000317D01*
X003008Y000353D01*
X002962Y000391D01*
X002918Y000433D01*
X002876Y000477D01*
X002838Y000523D01*
X002802Y000572D01*
X002769Y000623D01*
X002740Y000675D01*
X002713Y000730D01*
X002690Y000785D01*
X002670Y000842D01*
X002654Y000901D01*
X002641Y000960D01*
X002632Y001019D01*
X002627Y001080D01*
X002625Y001140D01*
M02*
