G75*
%MOIN*%
%OFA0B0*%
%FSLAX24Y24*%
%IPPOS*%
%LPD*%
%AMOC8*
5,1,8,0,0,1.08239X$1,22.5*
%
%ADD10OC8,0.0600*%
%ADD11R,0.1266X0.1266*%
%ADD12C,0.0600*%
%ADD13C,0.0270*%
%ADD14C,0.0100*%
D10*
X002650Y000900D03*
X003650Y000900D03*
X004650Y000900D03*
D11*
X006250Y008050D03*
X001050Y008050D03*
D12*
X003300Y004800D03*
X003300Y002800D03*
X000800Y003800D03*
D13*
X003650Y006950D03*
X004950Y004950D03*
X004750Y004250D03*
X004050Y003850D03*
X005450Y003050D03*
X005550Y001950D03*
X005650Y004250D03*
D14*
X002271Y000643D02*
X000370Y000643D01*
X000300Y000712D02*
X000712Y000300D01*
X006588Y000300D01*
X007000Y000712D01*
X007000Y007322D01*
X006945Y007267D01*
X005555Y007267D01*
X005467Y007355D01*
X005467Y008745D01*
X005555Y008833D01*
X006945Y008833D01*
X007000Y008778D01*
X007000Y009988D01*
X006588Y010400D01*
X000712Y010400D01*
X000300Y009988D01*
X000300Y008778D01*
X000355Y008833D01*
X001745Y008833D01*
X001833Y008745D01*
X001833Y007355D01*
X001745Y007267D01*
X000355Y007267D01*
X000300Y007322D01*
X000300Y000712D01*
X000300Y000741D02*
X002200Y000741D01*
X002200Y000714D02*
X002464Y000450D01*
X002836Y000450D01*
X003100Y000714D01*
X003100Y001086D01*
X002836Y001350D01*
X002464Y001350D01*
X002200Y001086D01*
X002200Y000714D01*
X002200Y000840D02*
X000300Y000840D01*
X000300Y000938D02*
X002200Y000938D01*
X002200Y001037D02*
X000300Y001037D01*
X000300Y001135D02*
X002249Y001135D01*
X002347Y001234D02*
X000300Y001234D01*
X000300Y001332D02*
X002446Y001332D01*
X002854Y001332D02*
X003446Y001332D01*
X003464Y001350D02*
X003200Y001086D01*
X003200Y000714D01*
X003464Y000450D01*
X003836Y000450D01*
X004100Y000714D01*
X004100Y001028D01*
X004125Y001050D01*
X004133Y001050D01*
X004187Y001104D01*
X004244Y001154D01*
X004245Y001162D01*
X004250Y001167D01*
X004250Y001243D01*
X004255Y001319D01*
X004250Y001325D01*
X004250Y003647D01*
X004292Y003689D01*
X004335Y003793D01*
X004335Y003907D01*
X004292Y004011D01*
X004211Y004092D01*
X004107Y004135D01*
X003993Y004135D01*
X003889Y004092D01*
X003808Y004011D01*
X003765Y003907D01*
X003765Y003793D01*
X003808Y003689D01*
X003850Y003647D01*
X003850Y001341D01*
X003848Y001339D01*
X003836Y001350D01*
X003464Y001350D01*
X003347Y001234D02*
X002953Y001234D01*
X003051Y001135D02*
X003249Y001135D01*
X003200Y001037D02*
X003100Y001037D01*
X003100Y000938D02*
X003200Y000938D01*
X003200Y000840D02*
X003100Y000840D01*
X003100Y000741D02*
X003200Y000741D01*
X003271Y000643D02*
X003029Y000643D01*
X002930Y000544D02*
X003370Y000544D01*
X003650Y000900D02*
X004050Y001250D01*
X004050Y003850D01*
X003800Y003992D02*
X001208Y003992D01*
X001181Y004055D02*
X001055Y004181D01*
X000890Y004250D01*
X000710Y004250D01*
X000545Y004181D01*
X000419Y004055D01*
X000350Y003890D01*
X000350Y003710D01*
X000419Y003545D01*
X000545Y003419D01*
X000710Y003350D01*
X000890Y003350D01*
X001055Y003419D01*
X001181Y003545D01*
X001250Y003710D01*
X001250Y003890D01*
X001181Y004055D01*
X001146Y004090D02*
X003887Y004090D01*
X003765Y003893D02*
X001249Y003893D01*
X001250Y003795D02*
X003765Y003795D01*
X003805Y003696D02*
X001244Y003696D01*
X001203Y003598D02*
X003850Y003598D01*
X003850Y003499D02*
X001135Y003499D01*
X001011Y003401D02*
X003850Y003401D01*
X003850Y003302D02*
X000300Y003302D01*
X000300Y003204D02*
X003101Y003204D01*
X003127Y003217D02*
X003064Y003185D01*
X003007Y003143D01*
X002957Y003093D01*
X002915Y003036D01*
X002883Y002973D01*
X002861Y002905D01*
X002852Y002850D01*
X003250Y002850D01*
X003250Y003248D01*
X003195Y003239D01*
X003127Y003217D01*
X003250Y003204D02*
X003350Y003204D01*
X003350Y003248D02*
X003405Y003239D01*
X003473Y003217D01*
X003536Y003185D01*
X003593Y003143D01*
X003643Y003093D01*
X003685Y003036D01*
X003717Y002973D01*
X003739Y002905D01*
X003748Y002850D01*
X003350Y002850D01*
X003350Y002750D01*
X003748Y002750D01*
X003739Y002695D01*
X003717Y002627D01*
X003685Y002564D01*
X003643Y002507D01*
X003593Y002457D01*
X003536Y002415D01*
X003473Y002383D01*
X003405Y002361D01*
X003350Y002352D01*
X003350Y002750D01*
X003250Y002750D01*
X003250Y002352D01*
X003195Y002361D01*
X003127Y002383D01*
X003064Y002415D01*
X003007Y002457D01*
X002957Y002507D01*
X002915Y002564D01*
X002883Y002627D01*
X002861Y002695D01*
X002852Y002750D01*
X003250Y002750D01*
X003250Y002850D01*
X003350Y002850D01*
X003350Y003248D01*
X003350Y003105D02*
X003250Y003105D01*
X003250Y003007D02*
X003350Y003007D01*
X003350Y002908D02*
X003250Y002908D01*
X003250Y002810D02*
X000300Y002810D01*
X000300Y002908D02*
X002862Y002908D01*
X002900Y003007D02*
X000300Y003007D01*
X000300Y003105D02*
X002969Y003105D01*
X002858Y002711D02*
X000300Y002711D01*
X000300Y002613D02*
X002890Y002613D01*
X002952Y002514D02*
X000300Y002514D01*
X000300Y002416D02*
X003064Y002416D01*
X003250Y002416D02*
X003350Y002416D01*
X003350Y002514D02*
X003250Y002514D01*
X003250Y002613D02*
X003350Y002613D01*
X003350Y002711D02*
X003250Y002711D01*
X003350Y002810D02*
X003850Y002810D01*
X003850Y002908D02*
X003738Y002908D01*
X003700Y003007D02*
X003850Y003007D01*
X003850Y003105D02*
X003631Y003105D01*
X003499Y003204D02*
X003850Y003204D01*
X003850Y002711D02*
X003742Y002711D01*
X003710Y002613D02*
X003850Y002613D01*
X003850Y002514D02*
X003648Y002514D01*
X003536Y002416D02*
X003850Y002416D01*
X003850Y002317D02*
X000300Y002317D01*
X000300Y002219D02*
X003850Y002219D01*
X003850Y002120D02*
X000300Y002120D01*
X000300Y002022D02*
X003850Y002022D01*
X003850Y001923D02*
X000300Y001923D01*
X000300Y001825D02*
X003850Y001825D01*
X003850Y001726D02*
X000300Y001726D01*
X000300Y001628D02*
X003850Y001628D01*
X003850Y001529D02*
X000300Y001529D01*
X000300Y001431D02*
X003850Y001431D01*
X004110Y001037D02*
X004200Y001037D01*
X004200Y001086D02*
X004200Y000950D01*
X004600Y000950D01*
X004600Y001350D01*
X004464Y001350D01*
X004200Y001086D01*
X004222Y001135D02*
X004249Y001135D01*
X004250Y001234D02*
X004347Y001234D01*
X004250Y001332D02*
X004446Y001332D01*
X004250Y001431D02*
X007000Y001431D01*
X007000Y001529D02*
X004250Y001529D01*
X004250Y001628D02*
X007000Y001628D01*
X007000Y001726D02*
X004250Y001726D01*
X004250Y001825D02*
X007000Y001825D01*
X007000Y001923D02*
X004250Y001923D01*
X004250Y002022D02*
X007000Y002022D01*
X007000Y002120D02*
X004250Y002120D01*
X004250Y002219D02*
X007000Y002219D01*
X007000Y002317D02*
X004250Y002317D01*
X004250Y002416D02*
X007000Y002416D01*
X007000Y002514D02*
X004250Y002514D01*
X004250Y002613D02*
X007000Y002613D01*
X007000Y002711D02*
X004250Y002711D01*
X004250Y002810D02*
X005287Y002810D01*
X005289Y002808D02*
X005393Y002765D01*
X005507Y002765D01*
X005611Y002808D01*
X005692Y002889D01*
X005735Y002993D01*
X005735Y003052D01*
X005850Y003167D01*
X005850Y004047D01*
X005892Y004089D01*
X005935Y004193D01*
X005935Y004307D01*
X005892Y004411D01*
X005811Y004492D01*
X005707Y004535D01*
X005593Y004535D01*
X005489Y004492D01*
X005408Y004411D01*
X005365Y004307D01*
X005365Y004193D01*
X005408Y004089D01*
X005450Y004047D01*
X005450Y003335D01*
X005393Y003335D01*
X005289Y003292D01*
X005208Y003211D01*
X005165Y003107D01*
X005165Y002993D01*
X005208Y002889D01*
X005289Y002808D01*
X005200Y002908D02*
X004250Y002908D01*
X004250Y003007D02*
X005165Y003007D01*
X005165Y003105D02*
X004250Y003105D01*
X004250Y003204D02*
X005205Y003204D01*
X005314Y003302D02*
X004250Y003302D01*
X004250Y003401D02*
X005450Y003401D01*
X005450Y003499D02*
X004250Y003499D01*
X004250Y003598D02*
X005450Y003598D01*
X005450Y003696D02*
X004295Y003696D01*
X004335Y003795D02*
X005450Y003795D01*
X005450Y003893D02*
X004335Y003893D01*
X004300Y003992D02*
X005450Y003992D01*
X005408Y004090D02*
X004213Y004090D01*
X003681Y004545D02*
X003750Y004710D01*
X003750Y004890D01*
X003681Y005055D01*
X003555Y005181D01*
X003390Y005250D01*
X003210Y005250D01*
X003045Y005181D01*
X002919Y005055D01*
X002850Y004890D01*
X002850Y004710D01*
X002919Y004545D01*
X003045Y004419D01*
X003210Y004350D01*
X003390Y004350D01*
X003555Y004419D01*
X003681Y004545D01*
X003697Y004583D02*
X007000Y004583D01*
X007000Y004681D02*
X003738Y004681D01*
X003750Y004780D02*
X007000Y004780D01*
X007000Y004878D02*
X003750Y004878D01*
X003714Y004977D02*
X007000Y004977D01*
X007000Y005075D02*
X003661Y005075D01*
X003563Y005174D02*
X007000Y005174D01*
X007000Y005272D02*
X000300Y005272D01*
X000300Y005174D02*
X003037Y005174D01*
X002939Y005075D02*
X000300Y005075D01*
X000300Y004977D02*
X002886Y004977D01*
X002850Y004878D02*
X000300Y004878D01*
X000300Y004780D02*
X002850Y004780D01*
X002862Y004681D02*
X000300Y004681D01*
X000300Y004583D02*
X002903Y004583D01*
X002980Y004484D02*
X000300Y004484D01*
X000300Y004386D02*
X003125Y004386D01*
X003475Y004386D02*
X005398Y004386D01*
X005365Y004287D02*
X000300Y004287D01*
X000300Y004189D02*
X000562Y004189D01*
X000454Y004090D02*
X000300Y004090D01*
X000300Y003992D02*
X000392Y003992D01*
X000351Y003893D02*
X000300Y003893D01*
X000300Y003795D02*
X000350Y003795D01*
X000356Y003696D02*
X000300Y003696D01*
X000300Y003598D02*
X000397Y003598D01*
X000465Y003499D02*
X000300Y003499D01*
X000300Y003401D02*
X000589Y003401D01*
X001038Y004189D02*
X005367Y004189D01*
X005481Y004484D02*
X003620Y004484D01*
X005450Y003050D02*
X005650Y003250D01*
X005650Y004250D01*
X005819Y004484D02*
X007000Y004484D01*
X007000Y004386D02*
X005902Y004386D01*
X005935Y004287D02*
X007000Y004287D01*
X007000Y004189D02*
X005933Y004189D01*
X005892Y004090D02*
X007000Y004090D01*
X007000Y003992D02*
X005850Y003992D01*
X005850Y003893D02*
X007000Y003893D01*
X007000Y003795D02*
X005850Y003795D01*
X005850Y003696D02*
X007000Y003696D01*
X007000Y003598D02*
X005850Y003598D01*
X005850Y003499D02*
X007000Y003499D01*
X007000Y003401D02*
X005850Y003401D01*
X005850Y003302D02*
X007000Y003302D01*
X007000Y003204D02*
X005850Y003204D01*
X005788Y003105D02*
X007000Y003105D01*
X007000Y003007D02*
X005735Y003007D01*
X005700Y002908D02*
X007000Y002908D01*
X007000Y002810D02*
X005613Y002810D01*
X004836Y001350D02*
X004700Y001350D01*
X004700Y000950D01*
X005100Y000950D01*
X005100Y001086D01*
X004836Y001350D01*
X004854Y001332D02*
X007000Y001332D01*
X007000Y001234D02*
X004953Y001234D01*
X005051Y001135D02*
X007000Y001135D01*
X007000Y001037D02*
X005100Y001037D01*
X005100Y000850D02*
X004700Y000850D01*
X004700Y000950D01*
X004600Y000950D01*
X004600Y000850D01*
X004700Y000850D01*
X004700Y000450D01*
X004836Y000450D01*
X005100Y000714D01*
X005100Y000850D01*
X005100Y000840D02*
X007000Y000840D01*
X007000Y000938D02*
X004700Y000938D01*
X004700Y000840D02*
X004600Y000840D01*
X004600Y000850D02*
X004600Y000450D01*
X004464Y000450D01*
X004200Y000714D01*
X004200Y000850D01*
X004600Y000850D01*
X004600Y000938D02*
X004100Y000938D01*
X004100Y000840D02*
X004200Y000840D01*
X004200Y000741D02*
X004100Y000741D01*
X004029Y000643D02*
X004271Y000643D01*
X004370Y000544D02*
X003930Y000544D01*
X004600Y000544D02*
X004700Y000544D01*
X004700Y000643D02*
X004600Y000643D01*
X004600Y000741D02*
X004700Y000741D01*
X004700Y001037D02*
X004600Y001037D01*
X004600Y001135D02*
X004700Y001135D01*
X004700Y001234D02*
X004600Y001234D01*
X004600Y001332D02*
X004700Y001332D01*
X005100Y000741D02*
X007000Y000741D01*
X006930Y000643D02*
X005029Y000643D01*
X004930Y000544D02*
X006832Y000544D01*
X006733Y000446D02*
X000567Y000446D01*
X000468Y000544D02*
X002370Y000544D01*
X000665Y000347D02*
X006635Y000347D01*
X007000Y005371D02*
X000300Y005371D01*
X000300Y005469D02*
X007000Y005469D01*
X007000Y005568D02*
X000300Y005568D01*
X000300Y005666D02*
X007000Y005666D01*
X007000Y005765D02*
X000300Y005765D01*
X000300Y005863D02*
X007000Y005863D01*
X007000Y005962D02*
X000300Y005962D01*
X000300Y006060D02*
X007000Y006060D01*
X007000Y006159D02*
X000300Y006159D01*
X000300Y006257D02*
X007000Y006257D01*
X007000Y006356D02*
X000300Y006356D01*
X000300Y006454D02*
X007000Y006454D01*
X007000Y006553D02*
X000300Y006553D01*
X000300Y006651D02*
X007000Y006651D01*
X007000Y006750D02*
X000300Y006750D01*
X000300Y006848D02*
X007000Y006848D01*
X007000Y006947D02*
X000300Y006947D01*
X000300Y007045D02*
X007000Y007045D01*
X007000Y007144D02*
X000300Y007144D01*
X000300Y007242D02*
X007000Y007242D01*
X006960Y008818D02*
X007000Y008818D01*
X007000Y008917D02*
X000300Y008917D01*
X000300Y009015D02*
X007000Y009015D01*
X007000Y009114D02*
X000300Y009114D01*
X000300Y009212D02*
X007000Y009212D01*
X007000Y009311D02*
X000300Y009311D01*
X000300Y009409D02*
X007000Y009409D01*
X007000Y009508D02*
X000300Y009508D01*
X000300Y009606D02*
X007000Y009606D01*
X007000Y009705D02*
X000300Y009705D01*
X000300Y009803D02*
X007000Y009803D01*
X007000Y009902D02*
X000300Y009902D01*
X000312Y010000D02*
X006988Y010000D01*
X006889Y010099D02*
X000411Y010099D01*
X000509Y010197D02*
X006791Y010197D01*
X006692Y010296D02*
X000608Y010296D01*
X000706Y010394D02*
X006594Y010394D01*
X005540Y008818D02*
X001760Y008818D01*
X001833Y008720D02*
X005467Y008720D01*
X005467Y008621D02*
X001833Y008621D01*
X001833Y008523D02*
X005467Y008523D01*
X005467Y008424D02*
X001833Y008424D01*
X001833Y008326D02*
X005467Y008326D01*
X005467Y008227D02*
X001833Y008227D01*
X001833Y008129D02*
X005467Y008129D01*
X005467Y008030D02*
X001833Y008030D01*
X001833Y007932D02*
X005467Y007932D01*
X005467Y007833D02*
X001833Y007833D01*
X001833Y007735D02*
X005467Y007735D01*
X005467Y007636D02*
X001833Y007636D01*
X001833Y007538D02*
X005467Y007538D01*
X005467Y007439D02*
X001833Y007439D01*
X001819Y007341D02*
X005481Y007341D01*
X000340Y008818D02*
X000300Y008818D01*
M02*
