G75*
%MOIN*%
%OFA0B0*%
%FSLAX24Y24*%
%IPPOS*%
%LPD*%
%AMOC8*
5,1,8,0,0,1.08239X$1,22.5*
%
%ADD10C,0.0040*%
%ADD11C,0.0030*%
%ADD12C,0.0080*%
%ADD13C,0.0010*%
%ADD14C,0.0020*%
%ADD15C,0.0050*%
%ADD16R,0.0295X0.0295*%
%ADD17C,0.0060*%
D10*
X002833Y001570D02*
X003013Y001570D01*
X003073Y001630D01*
X003073Y001870D01*
X003013Y001930D01*
X002833Y001930D01*
X002833Y001570D01*
X003201Y001570D02*
X003321Y001570D01*
X003261Y001570D02*
X003261Y001930D01*
X003201Y001930D02*
X003321Y001930D01*
X003447Y001870D02*
X003447Y001630D01*
X003507Y001570D01*
X003627Y001570D01*
X003687Y001630D01*
X003687Y001750D01*
X003567Y001750D01*
X003687Y001870D02*
X003627Y001930D01*
X003507Y001930D01*
X003447Y001870D01*
X003815Y001870D02*
X003815Y001630D01*
X003875Y001570D01*
X003995Y001570D01*
X004055Y001630D01*
X004055Y001870D01*
X003995Y001930D01*
X003875Y001930D01*
X003815Y001870D01*
X004183Y001930D02*
X004183Y001570D01*
X004424Y001570D01*
X004552Y001570D02*
X004792Y001570D01*
X004672Y001750D02*
X004552Y001750D01*
X004552Y001930D02*
X004552Y001570D01*
X004552Y001930D02*
X004792Y001930D01*
X006283Y003226D02*
X006283Y003467D01*
X006283Y003595D02*
X006283Y003715D01*
X006283Y003655D02*
X006643Y003655D01*
X006643Y003595D02*
X006643Y003715D01*
X006643Y003840D02*
X006283Y003840D01*
X006643Y004081D01*
X006283Y004081D01*
X006283Y004209D02*
X006343Y004209D01*
X006463Y004329D01*
X006643Y004329D01*
X006463Y004329D02*
X006343Y004449D01*
X006283Y004449D01*
X006343Y004577D02*
X006403Y004577D01*
X006463Y004637D01*
X006463Y004757D01*
X006523Y004817D01*
X006583Y004817D01*
X006643Y004757D01*
X006643Y004637D01*
X006583Y004577D01*
X006523Y004577D01*
X006463Y004637D01*
X006343Y004577D02*
X006283Y004637D01*
X006283Y004757D01*
X006343Y004817D01*
X006403Y004817D01*
X006463Y004757D01*
X006463Y004945D02*
X006463Y005185D01*
X006643Y005125D02*
X006283Y005125D01*
X006463Y004945D01*
X006643Y003347D02*
X006283Y003347D01*
X007043Y001930D02*
X006983Y001870D01*
X006983Y001630D01*
X007043Y001570D01*
X007163Y001570D01*
X007223Y001630D01*
X007223Y001750D01*
X007103Y001750D01*
X007223Y001870D02*
X007163Y001930D01*
X007043Y001930D01*
X007351Y001930D02*
X007591Y001570D01*
X007591Y001930D01*
X007719Y001930D02*
X007900Y001930D01*
X007960Y001870D01*
X007960Y001630D01*
X007900Y001570D01*
X007719Y001570D01*
X007719Y001930D01*
X007351Y001930D02*
X007351Y001570D01*
D11*
X006218Y006073D02*
X006218Y006267D01*
X006218Y006170D02*
X005928Y006170D01*
X006024Y006073D01*
X005976Y006368D02*
X005928Y006416D01*
X005928Y006513D01*
X005976Y006561D01*
X006169Y006368D01*
X006218Y006416D01*
X006218Y006513D01*
X006169Y006561D01*
X005976Y006561D01*
X006073Y006662D02*
X006073Y006856D01*
X006218Y006807D02*
X005928Y006807D01*
X006073Y006662D01*
X006169Y006368D02*
X005976Y006368D01*
X006014Y007271D02*
X005772Y007271D01*
X005772Y007464D02*
X006014Y007464D01*
X006062Y007416D01*
X006062Y007319D01*
X006014Y007271D01*
X006062Y007565D02*
X006062Y007759D01*
X006062Y007662D02*
X005772Y007662D01*
X005869Y007565D01*
X004198Y007623D02*
X004198Y007817D01*
X004198Y007720D02*
X003908Y007720D01*
X004004Y007623D01*
X003956Y007918D02*
X003908Y007966D01*
X003908Y008063D01*
X003956Y008111D01*
X004149Y007918D01*
X004198Y007966D01*
X004198Y008063D01*
X004149Y008111D01*
X003956Y008111D01*
X004053Y008212D02*
X004053Y008406D01*
X004198Y008357D02*
X003908Y008357D01*
X004053Y008212D01*
X004149Y007918D02*
X003956Y007918D01*
X003098Y007966D02*
X003049Y007918D01*
X002856Y008111D01*
X003049Y008111D01*
X003098Y008063D01*
X003098Y007966D01*
X003049Y007918D02*
X002856Y007918D01*
X002808Y007966D01*
X002808Y008063D01*
X002856Y008111D01*
X002953Y008212D02*
X002953Y008357D01*
X003001Y008406D01*
X003049Y008406D01*
X003098Y008357D01*
X003098Y008261D01*
X003049Y008212D01*
X002953Y008212D01*
X002856Y008309D01*
X002808Y008406D01*
X003098Y007817D02*
X003098Y007623D01*
X003098Y007720D02*
X002808Y007720D01*
X002904Y007623D01*
X007636Y007608D02*
X007733Y007705D01*
X007733Y007415D01*
X007829Y007415D02*
X007636Y007415D01*
X007931Y007463D02*
X007931Y007657D01*
X007979Y007705D01*
X008076Y007705D01*
X008124Y007657D01*
X007931Y007463D01*
X007979Y007415D01*
X008076Y007415D01*
X008124Y007463D01*
X008124Y007657D01*
X008225Y007705D02*
X008225Y007415D01*
X008225Y007512D02*
X008419Y007705D01*
X008274Y007560D02*
X008419Y007415D01*
X008370Y008365D02*
X008274Y008365D01*
X008225Y008413D01*
X008225Y008510D01*
X008370Y008510D01*
X008419Y008462D01*
X008419Y008413D01*
X008370Y008365D01*
X008225Y008510D02*
X008322Y008607D01*
X008419Y008655D01*
X008124Y008607D02*
X007931Y008413D01*
X007979Y008365D01*
X008076Y008365D01*
X008124Y008413D01*
X008124Y008607D01*
X008076Y008655D01*
X007979Y008655D01*
X007931Y008607D01*
X007931Y008413D01*
X007829Y008365D02*
X007636Y008365D01*
X007733Y008365D02*
X007733Y008655D01*
X007636Y008558D01*
D12*
X008102Y006044D02*
X008102Y005764D01*
X008102Y005584D02*
X008453Y005584D01*
X008523Y005514D01*
X008523Y005374D01*
X008453Y005304D01*
X008102Y005304D01*
X008173Y005124D02*
X008102Y005054D01*
X008102Y004843D01*
X008523Y004843D01*
X008523Y005054D01*
X008453Y005124D01*
X008173Y005124D01*
X008102Y004663D02*
X008523Y004383D01*
X008313Y004203D02*
X008383Y004133D01*
X008383Y003923D01*
X008523Y003923D02*
X008102Y003923D01*
X008102Y004133D01*
X008173Y004203D01*
X008313Y004203D01*
X008383Y003743D02*
X008453Y003743D01*
X008523Y003672D01*
X008523Y003532D01*
X008453Y003462D01*
X008313Y003532D02*
X008313Y003672D01*
X008383Y003743D01*
X008173Y003743D02*
X008102Y003672D01*
X008102Y003532D01*
X008173Y003462D01*
X008243Y003462D01*
X008313Y003532D01*
X008523Y003295D02*
X008523Y003155D01*
X008523Y003225D02*
X008102Y003225D01*
X008102Y003155D02*
X008102Y003295D01*
X008102Y005904D02*
X008523Y005904D01*
X003762Y005870D02*
X003762Y005516D01*
X002778Y006146D02*
X001951Y006146D01*
X003762Y003784D02*
X003762Y003430D01*
X002778Y003154D02*
X001951Y003154D01*
D13*
X001950Y004655D02*
X002000Y004655D01*
X001975Y004655D02*
X001975Y004805D01*
X001950Y004805D02*
X002000Y004805D01*
X002048Y004805D02*
X002123Y004805D01*
X002148Y004780D01*
X002148Y004755D01*
X002123Y004730D01*
X002048Y004730D01*
X002048Y004655D02*
X002123Y004655D01*
X002148Y004680D01*
X002148Y004705D01*
X002123Y004730D01*
X002048Y004655D02*
X002048Y004805D01*
X001903Y004805D02*
X001903Y004655D01*
X001803Y004805D01*
X001803Y004655D01*
X001755Y004655D02*
X001704Y004655D01*
X001729Y004655D02*
X001729Y004805D01*
X001704Y004805D02*
X001755Y004805D01*
X001657Y004805D02*
X001657Y004655D01*
X001557Y004655D02*
X001557Y004805D01*
X001607Y004755D01*
X001657Y004805D01*
X001510Y004730D02*
X001410Y004730D01*
X001363Y004705D02*
X001363Y004680D01*
X001338Y004655D01*
X001262Y004655D01*
X001262Y004805D01*
X001338Y004805D01*
X001363Y004780D01*
X001363Y004755D01*
X001338Y004730D01*
X001262Y004730D01*
X001215Y004705D02*
X001215Y004680D01*
X001190Y004655D01*
X001140Y004655D01*
X001115Y004680D01*
X001068Y004680D02*
X001068Y004805D01*
X001115Y004780D02*
X001115Y004755D01*
X001140Y004730D01*
X001190Y004730D01*
X001215Y004705D01*
X001215Y004780D02*
X001190Y004805D01*
X001140Y004805D01*
X001115Y004780D01*
X001068Y004680D02*
X001043Y004655D01*
X000993Y004655D01*
X000968Y004680D01*
X000968Y004805D01*
X001338Y004730D02*
X001363Y004705D01*
X001338Y005155D02*
X001288Y005155D01*
X001262Y005180D01*
X001262Y005230D02*
X001313Y005255D01*
X001338Y005255D01*
X001363Y005230D01*
X001363Y005180D01*
X001338Y005155D01*
X001262Y005230D02*
X001262Y005305D01*
X001363Y005305D01*
X001215Y005280D02*
X001215Y005230D01*
X001190Y005205D01*
X001115Y005205D01*
X001115Y005155D02*
X001115Y005305D01*
X001190Y005305D01*
X001215Y005280D01*
X001068Y005305D02*
X001018Y005305D01*
X001043Y005305D02*
X001043Y005180D01*
X001018Y005155D01*
X000993Y005155D01*
X000968Y005180D01*
D14*
X005149Y008360D02*
X005149Y008580D01*
X005223Y008507D01*
X005296Y008580D01*
X005296Y008360D01*
X005370Y008397D02*
X005407Y008360D01*
X005480Y008360D01*
X005517Y008397D01*
X005591Y008433D02*
X005701Y008433D01*
X005738Y008470D01*
X005738Y008543D01*
X005701Y008580D01*
X005591Y008580D01*
X005591Y008360D01*
X005370Y008397D02*
X005370Y008543D01*
X005407Y008580D01*
X005480Y008580D01*
X005517Y008543D01*
X005812Y008507D02*
X005886Y008580D01*
X005886Y008360D01*
X005959Y008360D02*
X005812Y008360D01*
X006033Y008397D02*
X006033Y008433D01*
X006070Y008470D01*
X006143Y008470D01*
X006180Y008433D01*
X006180Y008397D01*
X006143Y008360D01*
X006070Y008360D01*
X006033Y008397D01*
X006070Y008470D02*
X006033Y008507D01*
X006033Y008543D01*
X006070Y008580D01*
X006143Y008580D01*
X006180Y008543D01*
X006180Y008507D01*
X006143Y008470D01*
X006254Y008543D02*
X006291Y008580D01*
X006364Y008580D01*
X006401Y008543D01*
X006401Y008507D01*
X006254Y008360D01*
X006401Y008360D01*
X006585Y008360D02*
X006585Y008580D01*
X006475Y008470D01*
X006622Y008470D01*
D15*
X006228Y008205D02*
X005598Y008205D01*
X005598Y007087D02*
X006228Y007087D01*
X005651Y005984D02*
X005651Y002516D01*
X008663Y003150D02*
X008663Y006150D01*
X010663Y006150D01*
X010663Y003150D01*
X010963Y003150D01*
X010963Y004150D01*
X010663Y004150D01*
X010663Y003150D01*
X008663Y003150D01*
X010663Y003157D02*
X010963Y003157D01*
X010963Y003206D02*
X010663Y003206D01*
X010663Y003254D02*
X010963Y003254D01*
X010963Y003303D02*
X010663Y003303D01*
X010663Y003351D02*
X010963Y003351D01*
X010963Y003400D02*
X010663Y003400D01*
X010663Y003448D02*
X010963Y003448D01*
X010963Y003497D02*
X010663Y003497D01*
X010663Y003545D02*
X010963Y003545D01*
X010963Y003594D02*
X010663Y003594D01*
X010663Y003642D02*
X010963Y003642D01*
X010963Y003691D02*
X010663Y003691D01*
X010663Y003739D02*
X010963Y003739D01*
X010963Y003788D02*
X010663Y003788D01*
X010663Y003836D02*
X010963Y003836D01*
X010963Y003885D02*
X010663Y003885D01*
X010663Y003933D02*
X010963Y003933D01*
X010963Y003982D02*
X010663Y003982D01*
X010663Y004030D02*
X010963Y004030D01*
X010963Y004079D02*
X010663Y004079D01*
X010663Y004127D02*
X010963Y004127D01*
X005927Y005748D02*
X005730Y005630D01*
X005730Y005866D01*
X005927Y005748D01*
D16*
X005765Y008040D03*
D17*
X005395Y006063D02*
X006931Y006063D01*
X006948Y006062D01*
X006965Y006057D01*
X006980Y006050D01*
X006994Y006040D01*
X007006Y006028D01*
X007016Y006014D01*
X007023Y005999D01*
X007028Y005982D01*
X007029Y005965D01*
X005395Y006063D02*
X005378Y006062D01*
X005361Y006057D01*
X005346Y006050D01*
X005332Y006040D01*
X005320Y006028D01*
X005310Y006014D01*
X005303Y005999D01*
X005298Y005982D01*
X005297Y005965D01*
X005297Y002535D02*
X005298Y002518D01*
X005303Y002501D01*
X005310Y002486D01*
X005320Y002472D01*
X005332Y002460D01*
X005346Y002450D01*
X005361Y002443D01*
X005378Y002438D01*
X005395Y002437D01*
X006931Y002437D01*
X006948Y002438D01*
X006965Y002443D01*
X006980Y002450D01*
X006994Y002460D01*
X007006Y002472D01*
X007016Y002486D01*
X007023Y002501D01*
X007028Y002518D01*
X007029Y002535D01*
X007113Y001450D02*
X006863Y001200D01*
X006863Y000700D01*
X007113Y000450D01*
X007613Y000450D01*
X007863Y000700D01*
X007863Y001200D01*
X007613Y001450D01*
X007113Y001450D01*
X006863Y001200D02*
X006613Y001450D01*
X006113Y001450D01*
X005863Y001200D01*
X005863Y000700D01*
X006113Y000450D01*
X006613Y000450D01*
X006863Y000700D01*
X005863Y000700D02*
X005613Y000450D01*
X005113Y000450D01*
X004863Y000700D01*
X004613Y000450D01*
X004113Y000450D01*
X003863Y000700D01*
X003613Y000450D01*
X003113Y000450D01*
X002863Y000700D01*
X002863Y001200D01*
X003113Y001450D01*
X003613Y001450D01*
X003863Y001200D01*
X004113Y001450D01*
X004613Y001450D01*
X004863Y001200D01*
X004863Y000700D01*
X004863Y001200D02*
X005113Y001450D01*
X005613Y001450D01*
X005863Y001200D01*
X003863Y001200D02*
X003863Y000700D01*
M02*
