G75*
%MOIN*%
%OFA0B0*%
%FSLAX24Y24*%
%IPPOS*%
%LPD*%
%AMOC8*
5,1,8,0,0,1.08239X$1,22.5*
%
%ADD10R,0.0945X0.0787*%
%ADD11R,0.0433X0.0394*%
%ADD12R,0.0600X0.0600*%
%ADD13OC8,0.0600*%
%ADD14R,0.0660X0.0660*%
%ADD15OC8,0.0660*%
%ADD16C,0.0100*%
%ADD17C,0.0270*%
%ADD18C,0.0160*%
D10*
X006213Y004163D03*
X006213Y005737D03*
D11*
X006547Y006500D03*
X005878Y006500D03*
X005878Y003400D03*
X006547Y003400D03*
D12*
X003363Y000950D03*
D13*
X004363Y000950D03*
X005363Y000950D03*
X006363Y000950D03*
X007363Y000950D03*
D14*
X010163Y003650D03*
D15*
X009163Y003650D03*
X009163Y004650D03*
X010163Y004650D03*
X010163Y005650D03*
X009163Y005650D03*
D16*
X000593Y009020D02*
X000593Y000280D01*
X011133Y000280D01*
X011133Y009020D01*
X000593Y009020D01*
X000593Y009015D02*
X011133Y009015D01*
X011133Y008917D02*
X000593Y008917D01*
X000593Y008818D02*
X001090Y008818D01*
X001032Y008794D02*
X000819Y008580D01*
X000703Y008301D01*
X000703Y007999D01*
X000819Y007720D01*
X001032Y007506D01*
X001312Y007390D01*
X001614Y007390D01*
X001893Y007506D01*
X002107Y007720D01*
X002223Y007999D01*
X002223Y008301D01*
X002107Y008580D01*
X001893Y008794D01*
X001614Y008910D01*
X001312Y008910D01*
X001032Y008794D01*
X000958Y008720D02*
X000593Y008720D01*
X000593Y008621D02*
X000859Y008621D01*
X000795Y008523D02*
X000593Y008523D01*
X000593Y008424D02*
X000754Y008424D01*
X000713Y008326D02*
X000593Y008326D01*
X000593Y008227D02*
X000703Y008227D01*
X000703Y008129D02*
X000593Y008129D01*
X000593Y008030D02*
X000703Y008030D01*
X000731Y007932D02*
X000593Y007932D01*
X000593Y007833D02*
X000772Y007833D01*
X000812Y007735D02*
X000593Y007735D01*
X000593Y007636D02*
X000902Y007636D01*
X001001Y007538D02*
X000593Y007538D01*
X000593Y007439D02*
X001194Y007439D01*
X001732Y007439D02*
X009994Y007439D01*
X010112Y007390D02*
X009832Y007506D01*
X009619Y007720D01*
X009503Y007999D01*
X009503Y008301D01*
X009619Y008580D01*
X009832Y008794D01*
X010112Y008910D01*
X010414Y008910D01*
X010693Y008794D01*
X010907Y008580D01*
X011023Y008301D01*
X011023Y007999D01*
X010907Y007720D01*
X010693Y007506D01*
X010414Y007390D01*
X010112Y007390D01*
X009801Y007538D02*
X001925Y007538D01*
X002024Y007636D02*
X009702Y007636D01*
X009612Y007735D02*
X002113Y007735D01*
X002154Y007833D02*
X009572Y007833D01*
X009531Y007932D02*
X002195Y007932D01*
X002223Y008030D02*
X009503Y008030D01*
X009503Y008129D02*
X002223Y008129D01*
X002223Y008227D02*
X009503Y008227D01*
X009513Y008326D02*
X002213Y008326D01*
X002172Y008424D02*
X009554Y008424D01*
X009595Y008523D02*
X002131Y008523D01*
X002067Y008621D02*
X009659Y008621D01*
X009758Y008720D02*
X001968Y008720D01*
X001836Y008818D02*
X009890Y008818D01*
X010636Y008818D02*
X011133Y008818D01*
X011133Y008720D02*
X010768Y008720D01*
X010867Y008621D02*
X011133Y008621D01*
X011133Y008523D02*
X010931Y008523D01*
X010972Y008424D02*
X011133Y008424D01*
X011133Y008326D02*
X011013Y008326D01*
X011023Y008227D02*
X011133Y008227D01*
X011133Y008129D02*
X011023Y008129D01*
X011023Y008030D02*
X011133Y008030D01*
X011133Y007932D02*
X010995Y007932D01*
X010954Y007833D02*
X011133Y007833D01*
X011133Y007735D02*
X010913Y007735D01*
X010824Y007636D02*
X011133Y007636D01*
X011133Y007538D02*
X010725Y007538D01*
X010532Y007439D02*
X011133Y007439D01*
X011133Y007341D02*
X000593Y007341D01*
X000593Y007242D02*
X011133Y007242D01*
X011133Y007144D02*
X000593Y007144D01*
X000593Y007045D02*
X011133Y007045D01*
X011133Y006947D02*
X000593Y006947D01*
X000593Y006848D02*
X011133Y006848D01*
X011133Y006750D02*
X007855Y006750D01*
X007874Y006742D02*
X007770Y006785D01*
X007656Y006785D01*
X007551Y006742D01*
X007471Y006661D01*
X007428Y006557D01*
X007428Y006443D01*
X007471Y006339D01*
X007551Y006258D01*
X007656Y006215D01*
X007770Y006215D01*
X007842Y006245D01*
X008183Y005905D01*
X008183Y004305D01*
X008683Y003805D01*
X008683Y003451D01*
X008964Y003170D01*
X009362Y003170D01*
X009463Y003271D01*
X009463Y002583D01*
X009330Y002450D01*
X006816Y002450D01*
X006774Y002492D01*
X006670Y002535D01*
X006556Y002535D01*
X006451Y002492D01*
X006371Y002411D01*
X006328Y002307D01*
X006328Y002193D01*
X006371Y002089D01*
X006451Y002008D01*
X006556Y001965D01*
X006670Y001965D01*
X006774Y002008D01*
X006816Y002050D01*
X009496Y002050D01*
X009863Y002417D01*
X009863Y003170D01*
X010555Y003170D01*
X010643Y003258D01*
X010643Y004042D01*
X010555Y004130D01*
X009863Y004130D01*
X009863Y004271D01*
X009964Y004170D01*
X010362Y004170D01*
X010643Y004451D01*
X010643Y004849D01*
X010362Y005130D01*
X010076Y005130D01*
X010116Y005170D01*
X010362Y005170D01*
X010643Y005451D01*
X010643Y005849D01*
X010362Y006130D01*
X009964Y006130D01*
X009683Y005849D01*
X009683Y005451D01*
X009757Y005377D01*
X009580Y005200D01*
X009463Y005083D01*
X009463Y005029D01*
X009362Y005130D01*
X008964Y005130D01*
X008683Y004849D01*
X008683Y004455D01*
X008643Y004495D01*
X008643Y006095D01*
X008508Y006230D01*
X008008Y006730D01*
X007886Y006730D01*
X007874Y006742D01*
X008087Y006651D02*
X011133Y006651D01*
X011133Y006553D02*
X008186Y006553D01*
X008284Y006454D02*
X011133Y006454D01*
X011133Y006356D02*
X008383Y006356D01*
X008481Y006257D02*
X011133Y006257D01*
X011133Y006159D02*
X008580Y006159D01*
X008643Y006060D02*
X008894Y006060D01*
X008964Y006130D02*
X008683Y005849D01*
X008683Y005700D01*
X009113Y005700D01*
X009113Y006130D01*
X008964Y006130D01*
X009113Y006060D02*
X009213Y006060D01*
X009213Y006130D02*
X009213Y005700D01*
X009643Y005700D01*
X009643Y005849D01*
X009362Y006130D01*
X009213Y006130D01*
X009213Y005962D02*
X009113Y005962D01*
X009113Y005863D02*
X009213Y005863D01*
X009213Y005765D02*
X009113Y005765D01*
X009113Y005700D02*
X009213Y005700D01*
X009213Y005600D01*
X009643Y005600D01*
X009643Y005451D01*
X009362Y005170D01*
X009213Y005170D01*
X009213Y005600D01*
X009113Y005600D01*
X009113Y005170D01*
X008964Y005170D01*
X008683Y005451D01*
X008683Y005600D01*
X009113Y005600D01*
X009113Y005700D01*
X009113Y005666D02*
X008643Y005666D01*
X008643Y005568D02*
X008683Y005568D01*
X008683Y005469D02*
X008643Y005469D01*
X008643Y005371D02*
X008763Y005371D01*
X008862Y005272D02*
X008643Y005272D01*
X008643Y005174D02*
X008960Y005174D01*
X008909Y005075D02*
X008643Y005075D01*
X008643Y004977D02*
X008811Y004977D01*
X008712Y004878D02*
X008643Y004878D01*
X008643Y004780D02*
X008683Y004780D01*
X008683Y004681D02*
X008643Y004681D01*
X008643Y004583D02*
X008683Y004583D01*
X008683Y004484D02*
X008654Y004484D01*
X008299Y004189D02*
X006835Y004189D01*
X006835Y004287D02*
X008201Y004287D01*
X008183Y004386D02*
X006835Y004386D01*
X006835Y004484D02*
X008183Y004484D01*
X008183Y004583D02*
X006835Y004583D01*
X006835Y004618D02*
X006747Y004706D01*
X005994Y004706D01*
X005721Y004980D01*
X005686Y004980D01*
X005674Y004992D01*
X005654Y005000D01*
X005674Y005008D01*
X005686Y005020D01*
X005821Y005020D01*
X005994Y005194D01*
X006747Y005194D01*
X006835Y005282D01*
X006835Y006171D01*
X006856Y006183D01*
X006884Y006211D01*
X006904Y006245D01*
X006914Y006283D01*
X006914Y006452D01*
X006596Y006452D01*
X006596Y006548D01*
X006914Y006548D01*
X006914Y006717D01*
X006904Y006755D01*
X006884Y006789D01*
X006856Y006817D01*
X006822Y006837D01*
X006784Y006847D01*
X006596Y006847D01*
X006596Y006548D01*
X006499Y006548D01*
X006499Y006847D01*
X006311Y006847D01*
X006273Y006837D01*
X006239Y006817D01*
X006213Y006791D01*
X006157Y006847D01*
X005600Y006847D01*
X005512Y006759D01*
X005512Y006241D01*
X005590Y006162D01*
X005590Y005526D01*
X005570Y005535D01*
X005456Y005535D01*
X005351Y005492D01*
X005271Y005411D01*
X005228Y005307D01*
X005228Y005193D01*
X005271Y005089D01*
X005351Y005008D01*
X005372Y005000D01*
X005351Y004992D01*
X005271Y004911D01*
X005228Y004807D01*
X005228Y004693D01*
X005271Y004589D01*
X005351Y004508D01*
X005456Y004465D01*
X005570Y004465D01*
X005581Y004470D01*
X005590Y004460D01*
X005590Y003729D01*
X005570Y003717D01*
X005542Y003689D01*
X005522Y003655D01*
X005512Y003617D01*
X005512Y003448D01*
X005830Y003448D01*
X005830Y003352D01*
X005512Y003352D01*
X005512Y003183D01*
X005522Y003145D01*
X005542Y003111D01*
X005570Y003083D01*
X005604Y003063D01*
X005642Y003053D01*
X005830Y003053D01*
X005830Y003352D01*
X005927Y003352D01*
X005927Y003053D01*
X006114Y003053D01*
X006153Y003063D01*
X006187Y003083D01*
X006213Y003109D01*
X006269Y003053D01*
X006826Y003053D01*
X006914Y003141D01*
X006914Y003659D01*
X006835Y003738D01*
X006835Y004618D01*
X006773Y004681D02*
X008183Y004681D01*
X008183Y004780D02*
X005921Y004780D01*
X005823Y004878D02*
X008183Y004878D01*
X008183Y004977D02*
X005724Y004977D01*
X005876Y005075D02*
X008183Y005075D01*
X008183Y005174D02*
X005974Y005174D01*
X005590Y005568D02*
X002770Y005568D01*
X002770Y005577D02*
X002723Y005690D01*
X002637Y005777D01*
X002524Y005823D01*
X002402Y005823D01*
X002289Y005777D01*
X002202Y005690D01*
X002156Y005577D01*
X002156Y005455D01*
X002202Y005342D01*
X002289Y005256D01*
X002402Y005209D01*
X002524Y005209D01*
X002637Y005256D01*
X002723Y005342D01*
X002770Y005455D01*
X002770Y005577D01*
X002733Y005666D02*
X005590Y005666D01*
X005590Y005765D02*
X002649Y005765D01*
X002770Y005469D02*
X005329Y005469D01*
X005254Y005371D02*
X002735Y005371D01*
X002653Y005272D02*
X005228Y005272D01*
X005236Y005174D02*
X000593Y005174D01*
X000593Y005272D02*
X002273Y005272D01*
X002191Y005371D02*
X000593Y005371D01*
X000593Y005469D02*
X002156Y005469D01*
X002156Y005568D02*
X000593Y005568D01*
X000593Y005666D02*
X002192Y005666D01*
X002277Y005765D02*
X000593Y005765D01*
X000593Y005863D02*
X005590Y005863D01*
X005590Y005962D02*
X000593Y005962D01*
X000593Y006060D02*
X005590Y006060D01*
X005590Y006159D02*
X000593Y006159D01*
X000593Y006257D02*
X005512Y006257D01*
X005512Y006356D02*
X000593Y006356D01*
X000593Y006454D02*
X005512Y006454D01*
X005512Y006553D02*
X000593Y006553D01*
X000593Y006651D02*
X005512Y006651D01*
X005512Y006750D02*
X000593Y006750D01*
X000593Y005075D02*
X005285Y005075D01*
X005336Y004977D02*
X000593Y004977D01*
X000593Y004878D02*
X005257Y004878D01*
X005228Y004780D02*
X000593Y004780D01*
X000593Y004681D02*
X005233Y004681D01*
X005277Y004583D02*
X000593Y004583D01*
X000593Y004484D02*
X005410Y004484D01*
X005590Y004386D02*
X000593Y004386D01*
X000593Y004287D02*
X005590Y004287D01*
X005590Y004189D02*
X000593Y004189D01*
X000593Y004090D02*
X002399Y004090D01*
X002402Y004091D02*
X002289Y004044D01*
X002202Y003958D01*
X002156Y003845D01*
X002156Y003723D01*
X002202Y003610D01*
X002289Y003523D01*
X002402Y003477D01*
X002524Y003477D01*
X002637Y003523D01*
X002723Y003610D01*
X002770Y003723D01*
X002770Y003845D01*
X002723Y003958D01*
X002637Y004044D01*
X002524Y004091D01*
X002402Y004091D01*
X002526Y004090D02*
X005590Y004090D01*
X005590Y003992D02*
X002690Y003992D01*
X002750Y003893D02*
X005590Y003893D01*
X005590Y003795D02*
X002770Y003795D01*
X002759Y003696D02*
X005549Y003696D01*
X005512Y003598D02*
X002711Y003598D01*
X002578Y003499D02*
X005512Y003499D01*
X005512Y003302D02*
X000593Y003302D01*
X000593Y003204D02*
X005512Y003204D01*
X005548Y003105D02*
X000593Y003105D01*
X000593Y003007D02*
X005387Y003007D01*
X005351Y002992D02*
X005456Y003035D01*
X005570Y003035D01*
X005674Y002992D01*
X005716Y002950D01*
X007780Y002950D01*
X008063Y003233D01*
X008063Y003547D01*
X008021Y003589D01*
X007978Y003693D01*
X007978Y003807D01*
X008021Y003911D01*
X008101Y003992D01*
X008206Y004035D01*
X008320Y004035D01*
X008424Y003992D01*
X008504Y003911D01*
X008548Y003807D01*
X008548Y003693D01*
X008504Y003589D01*
X008463Y003547D01*
X008463Y003067D01*
X008346Y002950D01*
X007946Y002550D01*
X005716Y002550D01*
X005674Y002508D01*
X005570Y002465D01*
X005456Y002465D01*
X005351Y002508D01*
X005271Y002589D01*
X005228Y002693D01*
X005228Y002807D01*
X005271Y002911D01*
X005351Y002992D01*
X005270Y002908D02*
X000593Y002908D01*
X000593Y002810D02*
X005229Y002810D01*
X005228Y002711D02*
X000593Y002711D01*
X000593Y002613D02*
X005261Y002613D01*
X005346Y002514D02*
X000593Y002514D01*
X000593Y002416D02*
X006375Y002416D01*
X006332Y002317D02*
X000593Y002317D01*
X000593Y002219D02*
X006328Y002219D01*
X006358Y002120D02*
X000593Y002120D01*
X000593Y002022D02*
X006438Y002022D01*
X006613Y002250D02*
X009413Y002250D01*
X009663Y002500D01*
X009663Y005000D01*
X010163Y005500D01*
X010163Y005650D01*
X010562Y005371D02*
X011133Y005371D01*
X011133Y005469D02*
X010643Y005469D01*
X010643Y005568D02*
X011133Y005568D01*
X011133Y005666D02*
X010643Y005666D01*
X010643Y005765D02*
X011133Y005765D01*
X011133Y005863D02*
X010629Y005863D01*
X010530Y005962D02*
X011133Y005962D01*
X011133Y006060D02*
X010432Y006060D01*
X009894Y006060D02*
X009432Y006060D01*
X009530Y005962D02*
X009796Y005962D01*
X009697Y005863D02*
X009629Y005863D01*
X009643Y005765D02*
X009683Y005765D01*
X009683Y005666D02*
X009213Y005666D01*
X009213Y005568D02*
X009113Y005568D01*
X009113Y005469D02*
X009213Y005469D01*
X009213Y005371D02*
X009113Y005371D01*
X009113Y005272D02*
X009213Y005272D01*
X009213Y005174D02*
X009113Y005174D01*
X009365Y005174D02*
X009554Y005174D01*
X009464Y005272D02*
X009652Y005272D01*
X009562Y005371D02*
X009751Y005371D01*
X009683Y005469D02*
X009643Y005469D01*
X009643Y005568D02*
X009683Y005568D01*
X009463Y005075D02*
X009417Y005075D01*
X008683Y005765D02*
X008643Y005765D01*
X008643Y005863D02*
X008697Y005863D01*
X008643Y005962D02*
X008796Y005962D01*
X008183Y005863D02*
X006835Y005863D01*
X006835Y005962D02*
X008126Y005962D01*
X008028Y006060D02*
X006835Y006060D01*
X006835Y006159D02*
X007929Y006159D01*
X007555Y006257D02*
X006907Y006257D01*
X006914Y006356D02*
X007464Y006356D01*
X007428Y006454D02*
X006596Y006454D01*
X006596Y006553D02*
X006499Y006553D01*
X006499Y006651D02*
X006596Y006651D01*
X006596Y006750D02*
X006499Y006750D01*
X006905Y006750D02*
X007570Y006750D01*
X007467Y006651D02*
X006914Y006651D01*
X006914Y006553D02*
X007428Y006553D01*
X006835Y005765D02*
X008183Y005765D01*
X008183Y005666D02*
X006835Y005666D01*
X006835Y005568D02*
X008183Y005568D01*
X008183Y005469D02*
X006835Y005469D01*
X006835Y005371D02*
X008183Y005371D01*
X008183Y005272D02*
X006826Y005272D01*
X006835Y004090D02*
X008398Y004090D01*
X008424Y003992D02*
X008496Y003992D01*
X008512Y003893D02*
X008595Y003893D01*
X008548Y003795D02*
X008683Y003795D01*
X008683Y003696D02*
X008548Y003696D01*
X008508Y003598D02*
X008683Y003598D01*
X008683Y003499D02*
X008463Y003499D01*
X008463Y003401D02*
X008734Y003401D01*
X008832Y003302D02*
X008463Y003302D01*
X008463Y003204D02*
X008931Y003204D01*
X009395Y003204D02*
X009463Y003204D01*
X009463Y003105D02*
X008463Y003105D01*
X008402Y003007D02*
X009463Y003007D01*
X009463Y002908D02*
X008304Y002908D01*
X008205Y002810D02*
X009463Y002810D01*
X009463Y002711D02*
X008107Y002711D01*
X008008Y002613D02*
X009463Y002613D01*
X009394Y002514D02*
X006720Y002514D01*
X006505Y002514D02*
X005680Y002514D01*
X005513Y002750D02*
X007863Y002750D01*
X008263Y003150D01*
X008263Y003750D01*
X008014Y003893D02*
X006835Y003893D01*
X006835Y003795D02*
X007978Y003795D01*
X007978Y003696D02*
X006877Y003696D01*
X006914Y003598D02*
X008018Y003598D01*
X008063Y003499D02*
X006914Y003499D01*
X006914Y003401D02*
X008063Y003401D01*
X008063Y003302D02*
X006914Y003302D01*
X006914Y003204D02*
X008034Y003204D01*
X007935Y003105D02*
X006878Y003105D01*
X006217Y003105D02*
X006209Y003105D01*
X005927Y003105D02*
X005830Y003105D01*
X005830Y003204D02*
X005927Y003204D01*
X005927Y003302D02*
X005830Y003302D01*
X005830Y003401D02*
X000593Y003401D01*
X000593Y003499D02*
X002348Y003499D01*
X002215Y003598D02*
X000593Y003598D01*
X000593Y003696D02*
X002167Y003696D01*
X002156Y003795D02*
X000593Y003795D01*
X000593Y003893D02*
X002176Y003893D01*
X002236Y003992D02*
X000593Y003992D01*
X000593Y001923D02*
X011133Y001923D01*
X011133Y001825D02*
X010499Y001825D01*
X010414Y001860D02*
X010112Y001860D01*
X009832Y001744D01*
X009619Y001530D01*
X009503Y001251D01*
X009503Y000949D01*
X009619Y000670D01*
X009832Y000456D01*
X010112Y000340D01*
X010414Y000340D01*
X010693Y000456D01*
X010907Y000670D01*
X011023Y000949D01*
X011023Y001251D01*
X010907Y001530D01*
X010693Y001744D01*
X010414Y001860D01*
X010712Y001726D02*
X011133Y001726D01*
X011133Y001628D02*
X010810Y001628D01*
X010908Y001529D02*
X011133Y001529D01*
X011133Y001431D02*
X010948Y001431D01*
X010989Y001332D02*
X011133Y001332D01*
X011133Y001234D02*
X011023Y001234D01*
X011023Y001135D02*
X011133Y001135D01*
X011133Y001037D02*
X011023Y001037D01*
X011018Y000938D02*
X011133Y000938D01*
X011133Y000840D02*
X010977Y000840D01*
X010937Y000741D02*
X011133Y000741D01*
X011133Y000643D02*
X010880Y000643D01*
X010782Y000544D02*
X011133Y000544D01*
X011133Y000446D02*
X010669Y000446D01*
X010431Y000347D02*
X011133Y000347D01*
X010095Y000347D02*
X000593Y000347D01*
X000593Y000446D02*
X001178Y000446D01*
X001312Y000390D02*
X001032Y000506D01*
X000819Y000720D01*
X000703Y000999D01*
X000703Y001301D01*
X000819Y001580D01*
X001032Y001794D01*
X001312Y001910D01*
X001614Y001910D01*
X001893Y001794D01*
X002107Y001580D01*
X002223Y001301D01*
X002223Y000999D01*
X002107Y000720D01*
X001893Y000506D01*
X001614Y000390D01*
X001312Y000390D01*
X000994Y000544D02*
X000593Y000544D01*
X000593Y000643D02*
X000896Y000643D01*
X000810Y000741D02*
X000593Y000741D01*
X000593Y000840D02*
X000769Y000840D01*
X000728Y000938D02*
X000593Y000938D01*
X000593Y001037D02*
X000703Y001037D01*
X000703Y001135D02*
X000593Y001135D01*
X000593Y001234D02*
X000703Y001234D01*
X000716Y001332D02*
X000593Y001332D01*
X000593Y001431D02*
X000756Y001431D01*
X000797Y001529D02*
X000593Y001529D01*
X000593Y001628D02*
X000866Y001628D01*
X000964Y001726D02*
X000593Y001726D01*
X000593Y001825D02*
X001105Y001825D01*
X001820Y001825D02*
X010026Y001825D01*
X009814Y001726D02*
X001962Y001726D01*
X002060Y001628D02*
X009716Y001628D01*
X009618Y001529D02*
X002128Y001529D01*
X002169Y001431D02*
X009577Y001431D01*
X009536Y001332D02*
X007617Y001332D01*
X007549Y001400D02*
X007413Y001400D01*
X007413Y001000D01*
X007813Y001000D01*
X007813Y001136D01*
X007549Y001400D01*
X007413Y001332D02*
X007313Y001332D01*
X007313Y001400D02*
X007176Y001400D01*
X006913Y001136D01*
X006913Y001000D01*
X007313Y001000D01*
X007313Y001400D01*
X007313Y001234D02*
X007413Y001234D01*
X007413Y001135D02*
X007313Y001135D01*
X007313Y001037D02*
X007413Y001037D01*
X007413Y001000D02*
X007313Y001000D01*
X007313Y000900D01*
X007413Y000900D01*
X007413Y001000D01*
X007413Y000938D02*
X009507Y000938D01*
X009503Y001037D02*
X007813Y001037D01*
X007813Y001135D02*
X009503Y001135D01*
X009503Y001234D02*
X007716Y001234D01*
X007313Y000938D02*
X006813Y000938D01*
X006813Y000840D02*
X006913Y000840D01*
X006913Y000900D02*
X006913Y000764D01*
X007176Y000500D01*
X007313Y000500D01*
X007313Y000900D01*
X006913Y000900D01*
X006813Y000764D02*
X006549Y000500D01*
X006176Y000500D01*
X005913Y000764D01*
X005913Y001136D01*
X006176Y001400D01*
X006549Y001400D01*
X006813Y001136D01*
X006813Y000764D01*
X006790Y000741D02*
X006935Y000741D01*
X007034Y000643D02*
X006692Y000643D01*
X006593Y000544D02*
X007132Y000544D01*
X007313Y000544D02*
X007413Y000544D01*
X007413Y000500D02*
X007549Y000500D01*
X007813Y000764D01*
X007813Y000900D01*
X007413Y000900D01*
X007413Y000500D01*
X007413Y000643D02*
X007313Y000643D01*
X007313Y000741D02*
X007413Y000741D01*
X007413Y000840D02*
X007313Y000840D01*
X007692Y000643D02*
X009646Y000643D01*
X009589Y000741D02*
X007790Y000741D01*
X007813Y000840D02*
X009548Y000840D01*
X009744Y000544D02*
X007593Y000544D01*
X006913Y001037D02*
X006813Y001037D01*
X006813Y001135D02*
X006913Y001135D01*
X007010Y001234D02*
X006716Y001234D01*
X006617Y001332D02*
X007108Y001332D01*
X006787Y002022D02*
X011133Y002022D01*
X011133Y002120D02*
X009566Y002120D01*
X009664Y002219D02*
X011133Y002219D01*
X011133Y002317D02*
X009763Y002317D01*
X009861Y002416D02*
X011133Y002416D01*
X011133Y002514D02*
X009863Y002514D01*
X009863Y002613D02*
X011133Y002613D01*
X011133Y002711D02*
X009863Y002711D01*
X009863Y002810D02*
X011133Y002810D01*
X011133Y002908D02*
X009863Y002908D01*
X009863Y003007D02*
X011133Y003007D01*
X011133Y003105D02*
X009863Y003105D01*
X010588Y003204D02*
X011133Y003204D01*
X011133Y003302D02*
X010643Y003302D01*
X010643Y003401D02*
X011133Y003401D01*
X011133Y003499D02*
X010643Y003499D01*
X010643Y003598D02*
X011133Y003598D01*
X011133Y003696D02*
X010643Y003696D01*
X010643Y003795D02*
X011133Y003795D01*
X011133Y003893D02*
X010643Y003893D01*
X010643Y003992D02*
X011133Y003992D01*
X011133Y004090D02*
X010595Y004090D01*
X010380Y004189D02*
X011133Y004189D01*
X011133Y004287D02*
X010479Y004287D01*
X010577Y004386D02*
X011133Y004386D01*
X011133Y004484D02*
X010643Y004484D01*
X010643Y004583D02*
X011133Y004583D01*
X011133Y004681D02*
X010643Y004681D01*
X010643Y004780D02*
X011133Y004780D01*
X011133Y004878D02*
X010614Y004878D01*
X010515Y004977D02*
X011133Y004977D01*
X011133Y005075D02*
X010417Y005075D01*
X010365Y005174D02*
X011133Y005174D01*
X011133Y005272D02*
X010464Y005272D01*
X009946Y004189D02*
X009863Y004189D01*
X008101Y003992D02*
X006835Y003992D01*
X007836Y003007D02*
X005638Y003007D01*
X005549Y001400D02*
X005176Y001400D01*
X004913Y001136D01*
X004913Y000764D01*
X005176Y000500D01*
X005549Y000500D01*
X005813Y000764D01*
X005813Y001136D01*
X005549Y001400D01*
X005617Y001332D02*
X006108Y001332D01*
X006010Y001234D02*
X005716Y001234D01*
X005813Y001135D02*
X005913Y001135D01*
X005913Y001037D02*
X005813Y001037D01*
X005813Y000938D02*
X005913Y000938D01*
X005913Y000840D02*
X005813Y000840D01*
X005790Y000741D02*
X005935Y000741D01*
X006034Y000643D02*
X005692Y000643D01*
X005593Y000544D02*
X006132Y000544D01*
X005132Y000544D02*
X004593Y000544D01*
X004549Y000500D02*
X004813Y000764D01*
X004813Y001136D01*
X004549Y001400D01*
X004176Y001400D01*
X003913Y001136D01*
X003913Y000764D01*
X004176Y000500D01*
X004549Y000500D01*
X004692Y000643D02*
X005034Y000643D01*
X004935Y000741D02*
X004790Y000741D01*
X004813Y000840D02*
X004913Y000840D01*
X004913Y000938D02*
X004813Y000938D01*
X004813Y001037D02*
X004913Y001037D01*
X004913Y001135D02*
X004813Y001135D01*
X004716Y001234D02*
X005010Y001234D01*
X005108Y001332D02*
X004617Y001332D01*
X004108Y001332D02*
X003793Y001332D01*
X003813Y001312D02*
X003725Y001400D01*
X003001Y001400D01*
X002913Y001312D01*
X002913Y000588D01*
X003001Y000500D01*
X003725Y000500D01*
X003813Y000588D01*
X003813Y001312D01*
X003813Y001234D02*
X004010Y001234D01*
X003913Y001135D02*
X003813Y001135D01*
X003813Y001037D02*
X003913Y001037D01*
X003913Y000938D02*
X003813Y000938D01*
X003813Y000840D02*
X003913Y000840D01*
X003935Y000741D02*
X003813Y000741D01*
X003813Y000643D02*
X004034Y000643D01*
X004132Y000544D02*
X003769Y000544D01*
X002957Y000544D02*
X001932Y000544D01*
X002030Y000643D02*
X002913Y000643D01*
X002913Y000741D02*
X002116Y000741D01*
X002157Y000840D02*
X002913Y000840D01*
X002913Y000938D02*
X002198Y000938D01*
X002223Y001037D02*
X002913Y001037D01*
X002913Y001135D02*
X002223Y001135D01*
X002223Y001234D02*
X002913Y001234D01*
X002933Y001332D02*
X002210Y001332D01*
X001748Y000446D02*
X009857Y000446D01*
D17*
X006613Y002250D03*
X005513Y002750D03*
X003413Y003600D03*
X002113Y002850D03*
X005513Y004750D03*
X005513Y005250D03*
X004913Y006850D03*
X005013Y007650D03*
X003913Y007700D03*
X002113Y006450D03*
X003413Y005700D03*
X007713Y006500D03*
X007913Y005750D03*
X008263Y003750D03*
X008913Y008050D03*
D18*
X007913Y006500D02*
X007713Y006500D01*
X007913Y006500D02*
X008413Y006000D01*
X008413Y004400D01*
X009163Y003650D01*
X006547Y003828D02*
X006547Y003400D01*
X006547Y003828D02*
X006213Y004163D01*
X005625Y004750D01*
X005513Y004750D01*
X005513Y005250D02*
X005725Y005250D01*
X006213Y005737D01*
X005878Y006072D01*
X005878Y006500D01*
M02*
