G75*
%MOIN*%
%OFA0B0*%
%FSLAX24Y24*%
%IPPOS*%
%LPD*%
%AMOC8*
5,1,8,0,0,1.08239X$1,22.5*
%
%ADD10C,0.0050*%
%ADD11C,0.0040*%
%ADD12C,0.0030*%
D10*
X005622Y003966D02*
X005622Y005934D01*
X006213Y005245D02*
X006213Y005107D01*
X006429Y005107D01*
X006449Y005009D02*
X005977Y005009D01*
X005977Y004891D01*
X006449Y004891D01*
X006449Y005009D01*
X006429Y004793D02*
X006213Y004793D01*
X005996Y004793D01*
X006213Y004793D02*
X006213Y004675D01*
X006213Y005107D02*
X005996Y005107D01*
X006803Y005934D02*
X006803Y003966D01*
D11*
X006933Y004049D02*
X006933Y004289D01*
X006933Y004418D02*
X007173Y004658D01*
X007233Y004658D01*
X007293Y004598D01*
X007293Y004478D01*
X007233Y004418D01*
X007293Y004169D02*
X006933Y004169D01*
X007173Y004049D02*
X007293Y004169D01*
X006933Y004418D02*
X006933Y004658D01*
X006933Y004786D02*
X007293Y004786D01*
X007173Y004906D01*
X007293Y005026D01*
X006933Y005026D01*
X006933Y005154D02*
X007293Y005154D01*
X007113Y005154D02*
X007113Y005394D01*
X007173Y005522D02*
X007173Y005763D01*
X006933Y005522D01*
X006933Y005763D01*
X006933Y005394D02*
X007293Y005394D01*
X005493Y005090D02*
X005133Y005090D01*
X005133Y004970D02*
X005133Y005210D01*
X005373Y004970D02*
X005493Y005090D01*
X005433Y004842D02*
X005193Y004842D01*
X005133Y004782D01*
X005133Y004662D01*
X005193Y004602D01*
X005433Y004602D01*
X005493Y004662D01*
X005493Y004782D01*
X005433Y004842D01*
X005253Y004722D02*
X005133Y004842D01*
D12*
X005710Y003085D02*
X005903Y003085D01*
X005903Y002795D01*
X006004Y002843D02*
X006004Y002940D01*
X006053Y002988D01*
X006198Y002988D01*
X006198Y002698D01*
X006198Y002795D02*
X006053Y002795D01*
X006004Y002843D01*
X005903Y002940D02*
X005806Y002940D01*
X006299Y002988D02*
X006299Y003037D01*
X006347Y003085D01*
X006444Y003085D01*
X006492Y003037D01*
X006299Y002988D02*
X006492Y002795D01*
X006299Y002795D01*
X006594Y002795D02*
X006787Y002795D01*
X006690Y002795D02*
X006690Y003085D01*
X006787Y002988D01*
X006198Y006718D02*
X006198Y007008D01*
X006053Y007008D01*
X006004Y006960D01*
X006004Y006863D01*
X006053Y006815D01*
X006198Y006815D01*
X006299Y006815D02*
X006492Y006815D01*
X006299Y007008D01*
X006299Y007057D01*
X006347Y007105D01*
X006444Y007105D01*
X006492Y007057D01*
X006690Y007105D02*
X006690Y006815D01*
X006594Y006815D02*
X006787Y006815D01*
X006787Y007008D02*
X006690Y007105D01*
X005903Y007105D02*
X005903Y006815D01*
X005903Y006960D02*
X005806Y006960D01*
X005710Y007105D02*
X005903Y007105D01*
M02*
