G75*
%MOIN*%
%OFA0B0*%
%FSLAX24Y24*%
%IPPOS*%
%LPD*%
%AMOC8*
5,1,8,0,0,1.08239X$1,22.5*
%
%ADD10C,0.1320*%
%ADD11R,0.0493X0.0454*%
%ADD12R,0.0454X0.0493*%
%ADD13R,0.1044X0.0257*%
%ADD14R,0.1044X0.0847*%
%ADD15C,0.0414*%
%ADD16R,0.0450X0.0332*%
%ADD17R,0.0926X0.0320*%
%ADD18R,0.0660X0.0660*%
%ADD19OC8,0.0660*%
%ADD20R,0.0720X0.0720*%
%ADD21OC8,0.0720*%
D10*
X001463Y001150D03*
X001463Y008150D03*
X010263Y008150D03*
X010263Y001100D03*
D11*
X005547Y006500D03*
X004878Y006500D03*
X007728Y007100D03*
X008397Y007100D03*
X008397Y008050D03*
X007728Y008050D03*
D12*
X004463Y007715D03*
X004463Y008385D03*
X003413Y008385D03*
X003413Y007715D03*
D13*
X003447Y005280D03*
X003447Y004965D03*
X003447Y004650D03*
X003447Y004335D03*
X003447Y004020D03*
D14*
X003447Y002878D03*
X001282Y002878D03*
X001282Y006422D03*
X003447Y006422D03*
D15*
X002463Y005516D03*
X002463Y003784D03*
D16*
X005401Y007276D03*
X005401Y007650D03*
X005401Y008024D03*
X006425Y008024D03*
X006425Y007276D03*
D17*
X007344Y005750D03*
X007344Y005250D03*
X007344Y004750D03*
X007344Y004250D03*
X007344Y003750D03*
X007344Y003250D03*
X007344Y002750D03*
X004982Y002750D03*
X004982Y003250D03*
X004982Y003750D03*
X004982Y004250D03*
X004982Y004750D03*
X004982Y005250D03*
X004982Y005750D03*
D18*
X003363Y000950D03*
D19*
X004363Y000950D03*
X005363Y000950D03*
X006363Y000950D03*
X007363Y000950D03*
D20*
X010163Y003650D03*
D21*
X009163Y003650D03*
X009163Y004650D03*
X010163Y004650D03*
X010163Y005650D03*
X009163Y005650D03*
M02*
