%
M48
M72
T01C0.0130
T02C0.0354
T03C0.0400
T04C0.1260
%
T01
X2113Y2850
X3413Y3600
X5513Y2750
X6613Y2250
X8263Y3750
X7913Y5750
X7713Y6500
X8913Y8050
X5513Y5250
X5513Y4750
X3413Y5700
X2113Y6450
X3913Y7700
X5013Y7650
X4913Y6850
T02
X2463Y5516
X2463Y3784
T03
X3363Y950
X4363Y950
X5363Y950
X6363Y950
X7363Y950
X9163Y3650
X10163Y3650
X10163Y4650
X9163Y4650
X9163Y5650
X10163Y5650
T04
X1463Y1150
X1463Y8150
X10263Y8150
X10263Y1100
M30
